<svg width="347" height="347" viewBox="0 0 347 347" fill="none" xmlns="http://www.w3.org/2000/svg">
<path d="M173.5 58.5562C208.2 58.5562 240.008 73.0144 263.142 95.425L296.396 62.1706C265.311 31.0856 221.936 11.5669 173.5 11.5669C125.787 11.5669 82.4125 31.0856 50.6044 62.1713L83.8588 95.4257C106.992 72.2919 138.8 58.5562 173.5 58.5562Z" fill="#F8B64C"/>
<path d="M83.8581 95.425L50.6044 62.1706C19.5187 93.9794 0 137.354 0 185.067C0 232.779 19.5187 276.154 50.6044 307.962L83.8588 274.708C60.7257 251.575 46.99 219.766 46.99 185.066C46.9894 150.367 60.725 118.558 83.8581 95.425Z" fill="#54C0EB"/>
<path d="M296.396 62.1706L263.142 95.425C286.275 118.558 300.011 150.367 300.011 185.067C300.011 219.767 285.553 251.575 263.142 274.709L296.396 307.963C327.481 276.877 347 233.502 347 185.067C347 137.354 327.481 93.9794 296.396 62.1706Z" fill="#F1543F"/>
<path d="M263.142 95.425L231.334 127.233C216.153 112.775 195.911 103.377 173.501 103.377C151.091 103.377 130.126 112.775 115.668 127.233L83.8581 95.425C106.992 72.2919 138.8 58.5563 173.5 58.5563C208.2 58.5563 240.008 72.2919 263.142 95.425Z" fill="#FFD15C"/>
<path d="M115.667 242.9L83.8588 274.708C60.7257 251.575 46.99 219.766 46.99 185.066C46.99 150.366 61.4482 118.558 83.8588 95.4243L115.667 127.232C101.209 141.691 91.8107 162.656 91.8107 185.066C91.0875 207.477 100.486 228.442 115.667 242.9Z" fill="#84DBFF"/>
<path d="M300.011 185.067C300.011 219.767 285.553 251.575 263.142 274.709L231.333 242.9C245.791 227.719 255.189 207.477 255.189 185.067C255.189 162.657 245.791 141.692 231.333 127.234L263.141 95.4257C286.275 118.558 300.011 150.367 300.011 185.067Z" fill="#FF7058"/>
<path d="M169.456 61.7305L184.447 178.903C191.237 184.493 192.63 193.645 188.293 201.158C183.232 209.923 172.37 212.834 163.604 207.773C154.839 202.713 151.928 191.85 156.989 183.085C158.074 181.207 158.796 179.955 160.507 178.438L169.456 61.7305Z" fill="#40596B"/>
<path d="M235.671 335.433H111.329C96.1481 335.433 83.8588 323.144 83.8588 307.963C83.8588 292.781 96.1481 280.492 111.329 280.492H234.948C250.129 280.492 262.419 292.781 262.419 307.963C263.142 323.144 250.852 335.433 235.671 335.433Z" fill="#CDD6E0"/>
<path d="M179.53 196.099C181.527 192.641 180.342 188.22 176.884 186.223C173.426 184.227 169.005 185.412 167.009 188.87C165.012 192.327 166.197 196.749 169.655 198.745C173.113 200.741 177.534 199.557 179.53 196.099Z" fill="white"/>
</svg>
