<svg width="542" height="433" viewBox="0 0 542 433" fill="none" xmlns="http://www.w3.org/2000/svg">
<g clip-path="url(#clip0)">
<path opacity="0.1" d="M260.937 433C384.422 433 484.526 426.043 484.526 417.46C484.526 408.877 384.422 401.92 260.937 401.92C137.453 401.92 37.3487 408.877 37.3487 417.46C37.3487 426.043 137.453 433 260.937 433Z" fill="#E63336"/>
<path opacity="0.1" d="M17.6813 49.4698C3.74882 65.8108 0.224186 86.5257 0.0321215 106.388C-0.102843 120.394 1.80742 135.585 13.4766 145.914C28.8366 159.504 58.3262 162.182 65.9361 179.548C72.6843 194.979 56.9817 210.503 41.8969 221.394C26.8121 232.284 9.48999 245.619 12.3087 261.835C14.0943 272.19 23.8896 280.319 33.6589 287.142C52.2321 300.145 73.1099 311.519 96.6456 317.052C139.346 327.08 185.468 316.699 225.479 300.982C250.11 291.308 278.707 279.435 303.167 289.384C309.624 292.01 315.106 295.979 321.06 299.266C338.371 308.767 359.514 312.268 380.091 315.237C410.25 319.606 441.946 323.252 471.005 315.372C500.063 307.493 525.177 284.448 520.729 259.869C516.534 236.715 489.832 221.622 468.555 205.807C461.049 200.226 453.407 192.831 455.276 184.712C456.761 178.273 463.748 173.79 469.977 169.63C502.763 147.609 526.859 117.211 537.936 83.8785C543.169 68.1512 545.058 50.0315 533.384 36.7694C523.968 26.0713 507.829 20.9329 492.48 16.7046C463.997 8.85658 434.803 2.22552 404.846 0.43644C374.89 -1.35264 343.941 2.0591 317.348 13.3813C304.594 18.8162 293.034 25.9725 280.155 31.2045C243.59 46.0581 200.506 44.061 159.726 41.7154C145.155 40.8781 129.925 39.3906 117.274 33.0144C106.373 27.5119 100.144 23.5697 86.6479 22.956C60.1949 21.7546 32.8284 31.6726 17.6813 49.4698Z" fill="#E63336"/>
<path d="M215.143 161.413L214.572 162.593L210.871 170.213L172.048 250.082L106.17 411.807L96.7537 411.879L162.668 250.082L207.585 157.663L210.871 159.291L214.572 161.127L215.143 161.413Z" fill="#535461"/>
<path d="M330.724 411.879L322.974 411.807L257.091 250.082L219.291 172.309L214.572 162.593L213.996 161.413L214.572 161.127L219.291 158.786L221.559 157.663L265.801 250.082L330.724 411.879Z" fill="#535461"/>
<path d="M219.296 135.939H210.871V411.879H219.296V135.939Z" fill="#535461"/>
<path d="M214.12 90.4788C211.278 90.4815 208.553 91.6139 206.544 93.6274C204.534 95.6409 203.404 98.371 203.401 101.218V105.057C203.37 106.487 203.624 107.91 204.149 109.241C204.673 110.571 205.458 111.784 206.457 112.807C207.455 113.83 208.648 114.642 209.965 115.197C211.281 115.752 212.695 116.038 214.123 116.038C215.551 116.038 216.965 115.752 218.282 115.197C219.598 114.642 220.791 113.83 221.789 112.807C222.788 111.784 223.573 110.571 224.097 109.241C224.622 107.91 224.876 106.487 224.845 105.057V101.218C224.841 98.3705 223.709 95.6404 221.699 93.6271C219.688 91.6137 216.963 90.4815 214.12 90.4788ZM222.161 105.041C222.161 107.179 221.313 109.229 219.805 110.741C218.296 112.253 216.249 113.102 214.115 113.102C211.981 113.102 209.935 112.253 208.426 110.741C206.917 109.229 206.069 107.179 206.069 105.041V101.203C206.069 99.0649 206.917 97.0145 208.426 95.5027C209.935 93.9909 211.981 93.1416 214.115 93.1416C216.249 93.1416 218.296 93.9909 219.805 95.5027C221.313 97.0145 222.161 99.0649 222.161 101.203V105.041Z" fill="#535461"/>
<path opacity="0.1" d="M265.801 250.082H257.091L219.291 172.309V250.082H210.871V170.213L172.048 250.082H162.668L207.585 157.663L210.871 159.291V135.939H219.291V158.786L221.559 157.663L265.801 250.082Z" fill="black"/>
<path opacity="0.1" d="M224.845 101.604V105.057C224.876 106.487 224.622 107.91 224.097 109.241C223.573 110.572 222.788 111.784 221.789 112.807C220.791 113.83 219.598 114.643 218.282 115.197C216.965 115.752 215.551 116.038 214.123 116.038C212.695 116.038 211.281 115.752 209.965 115.197C208.648 114.643 207.455 113.83 206.457 112.807C205.458 111.784 204.673 110.572 204.149 109.241C203.624 107.91 203.37 106.487 203.401 105.057V101.604H206.08V105.057C206.08 107.195 206.927 109.245 208.436 110.757C209.945 112.269 211.992 113.118 214.126 113.118C216.26 113.118 218.306 112.269 219.815 110.757C221.324 109.245 222.172 107.195 222.172 105.057V101.604H224.845Z" fill="black"/>
<path d="M376.103 102.373H52.1428V248.932H376.103V102.373Z" fill="#535461"/>
<path d="M369.594 106.976H57.8892V240.491H369.594V106.976Z" fill="white"/>
<g opacity="0.2">
<path opacity="0.2" d="M103.408 121.491H88.6714V128.216H103.408V121.491Z" fill="#E63336"/>
</g>
<g opacity="0.2">
<path opacity="0.2" d="M103.408 134.499H88.6714V141.223H103.408V134.499Z" fill="#E63336"/>
</g>
<g opacity="0.2">
<path opacity="0.2" d="M103.408 147.501H88.6714V154.225H103.408V147.501Z" fill="#E63336"/>
</g>
<g opacity="0.2">
<path opacity="0.2" d="M103.408 160.503H88.6714V167.227H103.408V160.503Z" fill="#E63336"/>
</g>
<g opacity="0.2">
<path opacity="0.2" d="M103.408 173.51H88.6714V180.235H103.408V173.51Z" fill="#E63336"/>
</g>
<g opacity="0.2">
<path opacity="0.2" d="M103.408 186.512H88.6714V193.237H103.408V186.512Z" fill="#E63336"/>
</g>
<g opacity="0.2">
<path opacity="0.2" d="M103.408 199.514H88.6714V206.239H103.408V199.514Z" fill="#E63336"/>
</g>
<g opacity="0.2">
<path opacity="0.2" d="M103.408 212.516H88.6714V219.241H103.408V212.516Z" fill="#E63336"/>
</g>
<g opacity="0.2">
<path opacity="0.2" d="M131.154 219.246H116.417V225.971H131.154V219.246Z" fill="#E63336"/>
</g>
<g opacity="0.2">
<path opacity="0.2" d="M157.114 219.246H142.377V225.971H157.114V219.246Z" fill="#E63336"/>
</g>
<g opacity="0.2">
<path opacity="0.2" d="M183.068 219.246H168.331V225.971H183.068V219.246Z" fill="#E63336"/>
</g>
<g opacity="0.2">
<path opacity="0.2" d="M209.028 219.246H194.291V225.971H209.028V219.246Z" fill="#E63336"/>
</g>
<g opacity="0.2">
<path opacity="0.2" d="M234.983 219.246H220.246V225.971H234.983V219.246Z" fill="#E63336"/>
</g>
<g opacity="0.2">
<path opacity="0.2" d="M260.943 219.246H246.206V225.971H260.943V219.246Z" fill="#E63336"/>
</g>
<g opacity="0.2">
<path opacity="0.2" d="M286.897 219.246H272.16V225.971H286.897V219.246Z" fill="#E63336"/>
</g>
<g opacity="0.2">
<path opacity="0.2" d="M312.857 219.246H298.12V225.971H312.857V219.246Z" fill="#E63336"/>
</g>
<g opacity="0.2">
<path opacity="0.2" d="M338.812 219.246H324.075V225.971H338.812V219.246Z" fill="#E63336"/>
</g>
<path d="M131.154 170.369H116.417V212.516H131.154V170.369Z" fill="#E63336"/>
<path d="M157.114 150.865H142.377V212.521H157.114V150.865Z" fill="#E63336"/>
<path d="M183.068 134.499H168.331V212.521H183.068V134.499Z" fill="#E63336"/>
<path d="M209.028 142.981H194.291V212.516H209.028V142.981Z" fill="#E63336"/>
<path d="M234.983 128.221H220.246V212.521H234.983V128.221Z" fill="#E63336"/>
<g opacity="0.2">
<path opacity="0.2" d="M260.943 160.503H246.206V212.516H260.943V160.503Z" fill="#E63336"/>
</g>
<g opacity="0.2">
<path opacity="0.2" d="M286.897 160.503H272.16V212.516H286.897V160.503Z" fill="#E63336"/>
</g>
<g opacity="0.2">
<path opacity="0.2" d="M312.857 160.503H298.12V212.516H312.857V160.503Z" fill="#E63336"/>
</g>
<g opacity="0.2">
<path opacity="0.2" d="M338.812 160.503H324.075V212.516H338.812V160.503Z" fill="#E63336"/>
</g>
<path d="M322.382 160.388L196.191 168.169V170.634L325.071 165.511L322.382 160.388Z" fill="#535461"/>
<path d="M471.788 211.751C471.788 211.751 478.39 200.871 476.636 183.802C474.881 166.733 468.533 139.106 468.533 139.106C468.533 139.106 471.289 123.629 456.339 121.455C456.339 121.455 447.048 119.723 440.403 115.536C437.932 113.976 435.83 112.088 434.693 109.815C434.693 109.815 434.605 110.07 434.434 110.538C434.287 110.304 434.152 110.063 434.029 109.815C434.029 109.815 433.992 109.909 433.935 110.075L431.397 106.112C431.397 106.112 431.049 106.482 430.463 107.09C429.442 105.622 428.572 104.053 427.867 102.409C428.498 102.257 429.118 102.058 429.72 101.816C430.297 101.625 430.816 101.293 431.231 100.849C431.595 100.343 431.83 99.7556 431.916 99.138C432.321 97.1612 432.436 95.1359 432.259 93.1258C432.118 91.5656 431.802 90.0053 431.911 88.4191C432.025 86.7288 432.622 85.0958 432.705 83.4003C432.85 80.415 431.371 77.5754 429.544 75.209C428.454 73.7996 427.229 72.489 426.284 70.9807C425.464 69.6701 424.867 68.2243 423.984 66.9501C421.908 63.9856 418.446 62.2381 414.895 61.6192C411.344 61.0003 407.69 61.3852 404.134 61.9729C401.02 62.493 397.905 63.2471 394.791 63.4291C392.071 63.5851 389.854 62.6646 387.362 64.4693C386.537 65.0789 385.852 65.8584 385.352 66.7555C384.852 67.6525 384.55 68.6463 384.466 69.6701C384.425 70.0186 384.452 70.3717 384.544 70.7103C384.691 71.0611 384.864 71.4001 385.063 71.7244C386.168 73.9088 384.487 76.504 384.705 78.9432C384.838 80.0218 385.33 81.0237 386.103 81.7865C386.876 82.5493 387.883 83.0282 388.961 83.1454C388.863 83.3535 388.754 83.5563 388.66 83.7695C387.281 86.8902 386.661 90.294 386.851 93.7014C387.04 97.1087 388.034 100.422 389.75 103.37C391.466 106.318 393.856 108.816 396.723 110.659C399.59 112.502 402.852 113.637 406.242 113.971L407.207 114.714C409.387 116.405 411.838 118.428 414.199 120.628L414.153 120.664L413.769 120.446C413.05 121.016 412.293 121.537 411.505 122.006C409.32 123.348 405.795 125.09 401.829 125.288C401.829 125.288 394.728 129.058 392.283 141.494C388.774 144.645 381.263 150.335 371.338 151.817C357.39 153.897 340.192 154.579 340.192 154.579C340.192 154.579 340.052 154.828 339.855 155.286L338.267 154.995C338.267 154.995 338.267 155.187 338.199 155.515L337.576 155.234C332.65 153.076 322.808 149.929 321.562 158.599C319.891 170.228 330.958 168.891 330.958 168.891C333.146 168.058 335.389 167.376 337.67 166.848L338.287 166.728C338.392 167.031 338.539 167.318 338.723 167.581H340.229C340.752 168.665 341.383 169.693 342.113 170.649L377.193 169.88C377.193 169.88 383.189 168.569 388.722 169.401C386.309 187.479 383.459 207.305 383.459 207.305C383.459 207.305 377.489 238.702 381.668 241.984C384.093 241.173 386.565 240.51 389.07 239.997C389.108 241.937 389.313 243.87 389.683 245.775L392.356 263.307C392.356 263.307 393.394 281.219 396.867 291.912L399.93 306.526L402.494 317.573L403.937 336.322C405.919 344.264 407.351 352.334 408.225 360.474C409.58 373.071 416.935 393.427 417.916 396.105C415.404 399.668 410.244 405.711 403.771 406.335C394.531 407.23 394.308 412.81 400.765 414.818C407.223 416.825 420.813 414.818 420.813 414.818L439.978 410.069C439.401 413.611 439.1 416.409 439.521 416.711C440.746 417.605 459.345 422.432 460.015 414.703C460.066 414.065 460.113 413.446 460.155 412.847C460.432 407.896 459.771 402.937 458.208 398.232C458.058 397.769 457.923 397.301 457.803 396.833C458.079 396.524 458.332 396.196 458.561 395.85C458.561 395.85 459.9 374.985 460.902 367.506C460.98 366.908 461.032 366.18 461.058 365.358C461.52 356.392 458.255 332.806 458.255 332.806C458.255 332.806 454.221 317.463 454.372 310.411C454.395 309.825 454.495 309.245 454.668 308.684C454.668 308.684 454.668 308.544 454.616 308.31C454.616 308.211 454.663 308.107 454.694 308.014C454.694 308.014 452.649 293.971 452.934 285.619C452.974 284.373 453.148 283.135 453.453 281.926C453.778 280.34 453.943 278.725 453.946 277.105C454.206 271.384 453.905 261.503 453.49 252.235C453.536 252.079 453.583 251.923 453.619 251.741C453.703 251.003 453.616 250.255 453.365 249.556C453.334 248.958 453.308 248.365 453.277 247.778C453.448 247.19 453.588 246.566 453.713 245.921H453.983V245.957C453.983 245.957 471.435 245.12 475.447 240.434C475.447 240.434 471.393 227.812 469.145 217.55L471.788 211.751ZM396.581 172.49L396.306 172.392C396.748 170.831 397.272 169.016 397.864 167.113C397.36 169.172 396.924 171.045 396.581 172.49ZM414.293 120.747L414.371 120.82L414.288 120.773L414.293 120.747ZM436.095 391.461C435.155 388.221 431.423 375.011 431.542 368.712C431.568 368.165 431.664 367.623 431.828 367.1C432.174 365.959 432.349 364.772 432.347 363.579C432.721 357.005 430.208 345.225 430.208 345.225C430.208 345.225 424.586 329.337 425.017 316.72C425.017 316.402 425.054 316.085 425.074 315.768C425.168 314.572 425.241 313.277 425.292 311.909V311.883C425.505 307.01 425.459 301.143 425.318 295.672L425.287 295.469C425.095 288.224 424.737 281.703 424.586 279.123C425.106 282.852 428.428 306.063 429.86 309.86C429.86 309.86 430.644 320.568 434.205 329.623L438.109 353.162C438.109 353.162 439.111 381.174 440.777 389.094C441.524 392.621 442.158 394.997 442.63 396.547C441.955 399.704 440.865 404.993 440.133 409.372C439.702 406.517 438.187 395.637 436.1 391.461H436.095Z" fill="url(#paint0_linear)"/>
<path d="M419.406 392.184C419.406 392.184 412.891 404.016 403.729 404.9C394.567 405.784 394.349 411.312 400.75 413.304C407.15 415.296 420.621 413.304 420.621 413.304L439.827 408.551C439.827 408.551 437.507 389.526 434.418 388.533C431.33 387.54 419.406 392.184 419.406 392.184Z" fill="#4C4C78"/>
<path d="M442.817 392.402C442.817 392.402 437.958 414.298 439.183 415.187C440.408 416.076 458.831 420.825 459.495 413.195C459.547 412.554 459.594 411.94 459.636 411.354C459.908 406.447 459.253 401.533 457.705 396.87C457.186 395.309 456.822 393.64 456.957 392.402C457.263 389.308 442.817 392.402 442.817 392.402Z" fill="#4C4C78"/>
<path d="M436.79 115.193C436.79 115.193 421.887 151.869 424.54 140.089C426.294 132.288 414.952 121.923 407.109 115.833C403.117 112.712 400.033 110.731 400.033 110.731C400.033 110.731 428.012 78.0486 426.03 92.148C425.486 96.0096 426.014 99.9467 427.556 103.527C430.644 110.881 436.79 115.193 436.79 115.193Z" fill="#FFB9B9"/>
<path d="M341.594 167.295C340.805 167.092 339.518 167.222 338.183 167.508C335.924 168.031 333.702 168.707 331.534 169.531C331.534 169.531 320.566 170.858 322.221 159.333C323.452 150.741 333.205 153.861 338.09 155.994C339.751 156.727 340.852 157.341 340.852 157.341L341.594 167.295Z" fill="#FFB9B9"/>
<path opacity="0.1" d="M341.594 167.295C340.805 167.092 339.518 167.222 338.183 167.508C336.99 164.492 337.898 157.341 338.09 155.994C339.751 156.727 340.852 157.341 340.852 157.341L341.594 167.295Z" fill="black"/>
<path d="M341.641 156.29L338.77 155.77C338.77 155.77 337.301 165.652 339.222 168.252H342.523L341.641 156.29Z" fill="#CBCDDA"/>
<path d="M399.213 174.321C399.213 174.321 390.441 169.063 389.392 175.699C388.343 182.336 386.963 193.673 386.963 193.673L384.533 208.106L381.388 237.022L381.829 241.942C381.829 241.942 391.172 238.791 393.363 239.898C395.554 241.006 397.339 227.734 397.339 227.734L400.973 214.019L401.523 184.936L399.213 174.321Z" fill="#4C4C78"/>
<path opacity="0.1" d="M399.213 174.321C399.213 174.321 390.441 169.063 389.392 175.699C388.343 182.336 386.963 193.673 386.963 193.673L384.533 208.106L381.388 237.022L381.829 241.942C381.829 241.942 391.172 238.791 393.363 239.898C395.554 241.006 397.339 227.734 397.339 227.734L400.973 214.019L401.523 184.936L399.213 174.321Z" fill="black"/>
<path d="M394.484 140.256C394.484 140.256 385.379 150.543 371.556 152.613C357.733 154.683 340.675 155.354 340.675 155.354C340.675 155.354 336.372 163.067 342.58 171.279L377.359 170.509C377.359 170.509 385.058 168.834 391.022 170.509L394.484 140.256Z" fill="#4C4C78"/>
<path opacity="0.05" d="M394.484 140.256C394.484 140.256 385.379 150.543 371.556 152.613C357.733 154.683 340.675 155.354 340.675 155.354C340.675 155.354 336.372 163.067 342.58 171.279L377.359 170.509C377.359 170.509 385.058 168.834 391.022 170.509L394.484 140.256Z" fill="black"/>
<path opacity="0.1" d="M426.081 103.21C422.687 110.491 416.785 115.859 408.225 115.859C407.846 115.859 407.477 115.859 407.109 115.833C403.117 112.712 400.033 110.731 400.033 110.731C400.033 110.731 428.012 78.0486 426.03 92.148C425.417 96.4647 424.716 99.9701 426.081 103.21Z" fill="black"/>
<path d="M429.549 93.8231C429.546 98.0493 428.292 102.18 425.946 105.692C423.601 109.204 420.268 111.941 416.37 113.556C412.472 115.171 408.184 115.592 404.047 114.765C399.91 113.938 396.111 111.901 393.13 108.911C390.149 105.921 388.119 102.113 387.298 97.9677C386.477 93.8223 386.901 89.5262 388.517 85.6223C390.132 81.7184 392.867 78.3821 396.375 76.0352C399.883 73.6883 404.007 72.4363 408.225 72.4373C411.028 72.4318 413.805 72.9814 416.396 74.0544C418.987 75.1275 421.341 76.7028 423.323 78.6901C425.304 80.6773 426.874 83.0372 427.943 85.6342C429.011 88.2312 429.557 91.0141 429.549 93.8231Z" fill="#FFB9B9"/>
<path d="M442.583 224.416C442.583 224.416 395.014 228.623 393.27 222.538C391.525 216.453 398.123 199.977 398.123 199.977L395.974 176.974L395.896 176.095C395.896 176.095 401.855 151.209 401.637 149.222C401.43 147.433 411.23 126.552 413.244 122.282C413.483 121.788 413.608 121.517 413.608 121.517L413.987 121.736L414.153 121.835L416.483 123.197L425.687 121.013L436.78 115.193L437.818 178.856L442.583 224.416Z" fill="#CBCDDA"/>
<path opacity="0.1" d="M417.859 122.287C417.859 122.287 414.604 121.403 413.333 124.664C412.835 126.066 412.245 127.433 411.568 128.757L410.301 136.329L407.981 148.291L406.268 201.21L407.041 210.607L411.293 203.035L412.066 153.57V147.417C412.315 142.098 413.514 136.866 415.606 131.971L416.198 130.582L419.894 125.824L417.859 122.287Z" fill="black"/>
<path d="M417.2 121.621C417.2 121.621 413.94 120.737 412.673 123.998C412.175 125.4 411.583 126.768 410.903 128.091L409.637 135.669L407.316 147.631L405.608 200.549L406.382 209.952L410.633 202.354L411.407 152.92V146.752C411.661 141.433 412.859 136.202 414.947 131.305L415.544 129.917L419.24 125.163L417.2 121.621Z" fill="#4C4C78"/>
<path opacity="0.1" d="M431.106 107.964C431.106 107.964 419.847 119.926 415.871 121.346C415.871 121.346 417.859 130.416 419.847 132.184C419.847 132.184 431.662 120.113 433.754 119.135L435.508 114.834L431.106 107.964Z" fill="black"/>
<path d="M431.106 107.283C431.106 107.283 419.847 119.245 415.871 120.664C415.871 120.664 417.859 129.735 419.847 131.503C419.847 131.503 431.662 119.432 433.754 118.454L435.508 114.158L431.106 107.283Z" fill="#CBCDDA"/>
<path opacity="0.1" d="M414.267 121.517L414.153 121.829L410.545 131.519L404.093 149.799C404.093 149.799 404.036 149.987 403.921 150.32C402.852 153.648 397.106 171.71 395.974 176.958L395.896 176.079C395.896 176.079 401.855 151.193 401.637 149.207C401.43 147.417 411.23 126.536 413.244 122.266C413.566 122.048 413.815 121.861 413.987 121.72L414.267 121.517Z" fill="black"/>
<path d="M413.608 121.512L409.881 131.518L403.428 149.799C403.428 149.799 403.371 149.986 403.257 150.319C402.125 153.866 395.673 174.113 395.154 177.816C394.567 181.883 386.454 203.867 386.454 203.867L381.818 241.932C377.666 238.702 383.563 207.606 383.563 207.606C383.563 207.606 390.186 161.491 391.754 146.148C393.322 130.806 401.778 126.323 401.778 126.323C405.681 126.125 409.201 124.398 411.365 123.072C412.147 122.603 412.896 122.082 413.608 121.512Z" fill="#4C4C78"/>
<path opacity="0.1" d="M460.352 366.414C459.36 373.825 458.037 394.498 458.037 394.498C453.401 401.462 443.134 397.702 443.134 397.702C443.134 397.702 442.033 395.622 440.377 387.748C438.721 379.874 437.73 352.138 437.73 352.138L433.863 328.838C430.333 319.877 429.559 309.262 429.559 309.262C428.002 305.169 424.259 278.296 424.259 278.296C424.259 278.296 425.817 302.402 424.815 315.123C423.813 327.844 429.886 344.96 429.886 344.96C429.886 344.96 433.312 361 431.542 365.977C429.772 370.954 435.96 391.518 435.96 391.518C435.441 397.494 417.864 395.06 417.864 395.06C417.864 395.06 409.595 372.826 408.147 359.445C407.279 351.382 405.858 343.388 403.895 335.521L402.463 316.938L399.919 305.954L396.888 291.47C393.462 280.855 392.418 263.105 392.418 263.105L389.766 245.687C388.032 237.074 390.285 226.964 391.78 221.675C392.429 219.381 392.948 217.982 392.948 217.982C394.469 219.064 403.179 220.333 407.685 221.363C410.151 221.932 412.687 222.135 415.212 221.966C426.603 221.06 437.872 218.99 448.844 215.787C449.586 215.564 449.98 215.434 449.98 215.434L450.214 217.426L450.764 222.169L451.745 230.589C451.745 230.589 454.725 275.488 452.96 281.557C451.195 287.627 454.175 308.081 454.175 308.081C452.519 312.934 457.705 332.655 457.705 332.655C457.705 332.655 461.349 359.003 460.352 366.414Z" fill="black"/>
<path d="M460.352 365.764C459.36 373.175 458.037 393.848 458.037 393.848C453.401 400.817 443.134 397.052 443.134 397.052C443.134 397.052 442.033 394.972 440.377 387.103C438.721 379.234 437.73 351.488 437.73 351.488L433.863 328.157C430.359 319.196 429.559 308.555 429.559 308.555C428.002 304.462 424.259 277.589 424.259 277.589C424.259 277.589 425.817 301.695 424.815 314.416C423.813 327.137 429.886 344.274 429.886 344.274C429.886 344.274 433.312 360.313 431.542 365.291C429.772 370.268 435.96 390.837 435.96 390.837C435.441 396.808 417.864 394.374 417.864 394.374C417.864 394.374 409.595 372.166 408.147 358.779C407.279 350.716 405.858 342.723 403.895 334.855L402.463 316.278L399.919 305.33L396.888 290.846C393.462 280.226 392.418 262.475 392.418 262.475L389.766 245.058C388.032 236.445 390.285 226.335 391.78 221.046C392.429 218.757 392.948 217.358 392.948 217.358C394.469 218.44 403.179 219.704 407.685 220.734C410.15 221.306 412.687 221.509 415.212 221.337C426.603 220.431 437.872 218.36 448.844 215.158L449.98 214.81L450.214 216.797L450.764 221.545L451.745 229.965C451.745 229.965 454.725 274.859 452.96 280.933C451.195 287.008 454.175 307.457 454.175 307.457C452.519 312.305 457.705 332.026 457.705 332.026C457.705 332.026 461.349 358.342 460.352 365.764Z" fill="#474463"/>
<path opacity="0.1" d="M429.549 93.823C429.556 97.56 428.582 101.233 426.725 104.474C423.403 105.062 419.868 104.412 417.381 102.212C415.679 100.709 414.578 98.6546 413.115 96.9123C412.167 95.8416 411.149 94.8356 410.067 93.901C409.361 93.1962 408.551 92.605 407.664 92.1483C407.218 91.9227 406.727 91.8026 406.227 91.7972C405.728 91.7917 405.234 91.9012 404.783 92.1171C403.61 92.7724 403.226 94.2339 402.546 95.3989C402.034 96.399 401.159 97.1642 400.101 97.5364C399.572 97.706 399.002 97.701 398.476 97.5222C397.95 97.3434 397.495 97.0002 397.178 96.5431C396.457 95.3001 396.986 93.3601 395.777 92.6008C395.458 92.443 395.128 92.3074 394.791 92.1952C393.233 91.4879 393.052 89.3919 392.917 87.6756C392.849 86.8331 392.668 85.8814 391.962 85.4289C391.256 84.9764 390.326 85.2053 389.485 85.2209C389.237 85.2307 388.988 85.2115 388.743 85.1636C390.726 80.6864 394.183 77.0274 398.536 74.799C402.89 72.5706 407.875 71.9082 412.658 72.9226C417.44 73.937 421.73 76.5667 424.809 80.3714C427.888 84.1762 429.568 88.925 429.57 93.823H429.549Z" fill="black"/>
<path d="M387.435 66.0298C386.615 66.6357 385.935 67.4107 385.44 68.3025C384.945 69.1943 384.646 70.1821 384.564 71.1994C384.525 71.5393 384.552 71.8837 384.642 72.2136C384.787 72.5637 384.961 72.9011 385.161 73.2225C386.251 75.3913 384.585 77.9605 384.798 80.3789C384.942 81.5213 385.495 82.5726 386.355 83.3377C387.214 84.1027 388.32 84.5298 389.47 84.5395C390.311 84.5395 391.235 84.2899 391.946 84.7475C392.657 85.2052 392.834 86.1518 392.901 86.9943C393.036 88.7106 393.207 90.8065 394.77 91.5138C395.106 91.6288 395.436 91.7642 395.756 91.9195C396.971 92.6788 396.441 94.6239 397.163 95.8617C397.48 96.3188 397.935 96.662 398.461 96.8408C398.987 97.0197 399.556 97.0246 400.085 96.8551C401.142 96.4843 402.015 95.7209 402.525 94.7227C403.195 93.5525 403.594 92.1223 404.768 91.441C405.217 91.2231 405.711 91.1121 406.211 91.1166C406.711 91.1211 407.203 91.241 407.648 91.467C408.535 91.9255 409.346 92.5185 410.052 93.2249C411.135 94.1581 412.153 95.1642 413.099 96.2362C414.563 97.9732 415.663 100.028 417.366 101.531C420.574 104.355 425.484 104.651 429.44 103.023C430.011 102.833 430.526 102.504 430.94 102.066C431.301 101.563 431.535 100.979 431.62 100.366C432.022 98.4078 432.137 96.4018 431.963 94.4107C431.823 92.8504 431.506 91.2902 431.615 89.7299C431.724 88.0553 432.321 86.4378 432.404 84.7631C432.549 81.7987 431.08 78.985 429.289 76.6395C428.21 75.2404 426.995 73.9454 426.061 72.4476C425.246 71.1474 424.654 69.7172 423.782 68.4586C421.737 65.5201 418.29 63.7778 414.77 63.1693C411.251 62.5608 407.633 62.9353 404.108 63.523C401.035 64.0431 397.941 64.7816 394.827 64.9636C392.102 65.156 389.906 64.2355 387.435 66.0298Z" fill="#472727"/>
<path opacity="0.1" d="M413.608 121.512L409.881 131.518L403.428 149.799C403.428 149.799 403.371 149.986 403.257 150.319V150.345L411.376 123.062C412.153 122.596 412.899 122.078 413.608 121.512Z" fill="black"/>
<path d="M453.9 236.029C453.9 236.029 454.284 248.137 451.029 251.179L442.365 234.812L449.633 231.27L453.9 236.029Z" fill="#FFB9B9"/>
<path opacity="0.1" d="M474.123 240.45C470.147 245.094 452.841 245.926 452.841 245.926L435.711 218.882C435.711 218.882 431.657 216.063 424.041 203.368C416.426 190.673 416.676 180.895 417.101 173.593C417.527 166.291 422.292 145.306 422.292 145.306C423.034 140.584 433.712 110.98 433.712 110.98C434.833 113.222 436.92 115.094 439.36 116.639C445.952 120.8 455.156 122.505 455.156 122.505C469.981 124.664 467.245 140.006 467.245 140.006C467.245 140.006 467.412 199.644 466.498 206.78C465.584 213.915 474.123 240.45 474.123 240.45Z" fill="black"/>
<path d="M454.123 238.349L453.625 242.774L447.608 240.564L443.196 233.871L446.508 231.27L454.123 238.349Z" fill="#CBCDDA"/>
<path opacity="0.1" d="M453.91 221.207L450.764 221.529L420.434 224.566C415.563 225.057 410.647 224.815 405.847 223.849L391.78 221.03C392.429 218.742 392.948 217.343 392.948 217.343C394.469 218.424 403.179 219.688 407.685 220.718C410.15 221.29 412.687 221.493 415.212 221.321C426.603 220.415 437.872 218.345 448.844 215.143L450.214 216.781L453.91 221.207Z" fill="black"/>
<g opacity="0.1">
<path opacity="0.1" d="M393.264 217.509C393.164 217.459 393.067 217.404 392.974 217.343C392.974 217.343 392.974 217.374 392.943 217.421L393.264 217.509Z" fill="black"/>
<path opacity="0.1" d="M457.731 332.021C457.731 332.021 452.54 312.299 454.201 307.452C454.201 307.452 451.221 287.013 452.991 280.928C454.761 274.843 451.771 229.96 451.771 229.96L450.79 221.54L450.24 216.791L450.012 214.804L448.87 215.153L448.164 215.361L448.252 216.131L448.802 220.874L449.783 229.294C449.783 229.294 452.763 274.193 451.003 280.262C449.243 286.331 452.213 306.786 452.213 306.786C450.557 311.639 455.742 331.355 455.742 331.355C455.742 331.355 459.376 357.682 458.395 365.088C457.414 372.493 456.075 393.172 456.075 393.172C452.69 398.264 446.3 397.629 443.097 396.917L443.154 397.041C443.154 397.041 453.422 400.807 458.058 393.838C458.058 393.838 459.381 373.154 460.378 365.753C461.375 358.352 457.731 332.021 457.731 332.021Z" fill="black"/>
<path opacity="0.1" d="M431.573 365.311C433.338 360.334 429.918 344.295 429.918 344.295C429.918 344.295 423.849 327.132 424.841 314.437C425.256 309.137 425.23 301.867 425.054 295.194C423.647 286.586 422.297 276.991 422.297 276.991C422.297 276.991 423.855 301.097 422.858 313.813C421.861 326.529 427.929 343.676 427.929 343.676C427.929 343.676 431.355 359.71 429.585 364.687C427.815 369.664 433.992 390.208 433.992 390.208C433.551 394.992 422.209 394.368 417.708 393.952L417.88 394.41C417.88 394.41 435.43 396.844 435.981 390.873C435.991 390.858 429.809 370.289 431.573 365.311Z" fill="black"/>
</g>
<path d="M474.783 240.45C470.812 245.094 453.5 245.926 453.5 245.926L436.37 218.882C436.37 218.882 432.316 216.063 424.695 203.368C417.075 190.673 417.335 180.895 417.755 173.593C418.176 166.291 422.946 145.306 422.946 145.306C423.688 140.584 434.366 110.98 434.366 110.98C435.482 113.222 437.569 115.094 440.014 116.639C446.606 120.8 455.81 122.505 455.81 122.505C470.63 124.664 467.894 140.006 467.894 140.006C467.894 140.006 468.06 199.644 467.147 206.78C466.233 213.915 474.783 240.45 474.783 240.45Z" fill="#4C4C78"/>
<path opacity="0.1" d="M437.538 125.657L433.811 127.046L436.292 128.788L417.76 173.578C418.191 166.296 422.951 145.29 422.951 145.29C423.694 140.568 434.371 110.965 434.371 110.965C435.487 113.206 437.574 115.079 440.019 116.623L437.538 125.657Z" fill="black"/>
<path opacity="0.1" d="M442.007 205.448L460.964 200.554L463.451 208.267L444.078 213L442.007 205.448Z" fill="black"/>
<path opacity="0.1" d="M452.851 128.809C452.851 128.809 444.239 136.927 447.489 155.021C450.738 173.115 455.934 192.758 455.934 192.758L441.919 231.661C441.919 231.661 451.688 241.865 456.49 243.102L470.479 211.996C470.479 211.996 477.02 201.215 475.281 184.297C473.542 167.378 467.251 140.001 467.251 140.001C467.251 140.001 467.256 123.338 452.851 128.809Z" fill="black"/>
<path d="M453.51 128.809C453.51 128.809 444.893 136.927 448.132 155.021C451.372 173.115 456.573 192.758 456.573 192.758L442.557 231.661C442.557 231.661 452.327 241.865 457.128 243.102L471.144 211.996C471.144 211.996 477.684 201.215 475.945 184.297C474.207 167.378 467.915 140.001 467.915 140.001C467.915 140.001 467.915 123.338 453.51 128.809Z" fill="#4C4C78"/>
<path opacity="0.1" d="M443.025 232.487C443.025 232.487 453.952 247.642 453.126 251.678C452.301 255.714 449.098 253.556 449.098 253.556L444.795 247.642L440.927 236.58C440.927 236.58 441.306 231.806 443.025 232.487Z" fill="black"/>
<path opacity="0.1" d="M441.701 232.487C441.701 232.487 452.602 247.642 451.802 251.678C451.003 255.714 447.774 253.556 447.774 253.556L443.466 247.642L439.604 236.58C439.604 236.58 439.983 231.806 441.701 232.487Z" fill="black"/>
<path d="M442.365 232.487C442.365 232.487 453.266 247.642 452.462 251.678C451.657 255.714 448.434 253.556 448.434 253.556L444.13 247.642L440.268 236.58C440.268 236.58 440.642 231.806 442.365 232.487Z" fill="#474463"/>
</g>
<defs>
<linearGradient id="paint0_linear" x1="399.146" y1="419.046" x2="399.146" y2="61.2968" gradientUnits="userSpaceOnUse">
<stop stop-color="#808080" stop-opacity="0.25"/>
<stop offset="0.54" stop-color="#808080" stop-opacity="0.12"/>
<stop offset="1" stop-color="#808080" stop-opacity="0.1"/>
</linearGradient>
<clipPath id="clip0">
<rect width="542" height="433" fill="white"/>
</clipPath>
</defs>
</svg>
