<svg width="842" height="512" viewBox="0 0 842 512" fill="none" xmlns="http://www.w3.org/2000/svg">
<g clip-path="url(#clip0)">
<path d="M586.865 245.47C586.865 245.47 552.994 238.616 557.281 253.18C561.569 267.744 589.867 258.32 589.867 258.32L586.865 245.47Z" fill="#FFB8B8"/>
<path d="M659.939 168.543C660.36 168.16 660.877 167.897 661.436 167.782C661.994 167.667 662.573 167.704 663.112 167.89C663.651 168.075 664.13 168.402 664.499 168.837C664.868 169.271 665.113 169.796 665.209 170.357L666.367 177.075C666.367 177.075 671.6 203.945 667.119 221.013C662.638 238.082 659.458 260.565 647.348 262.96C636.986 265.01 597.585 261.764 586.43 260.785C585.627 260.714 584.881 260.341 584.343 259.741C583.806 259.14 583.517 258.358 583.535 257.553L583.744 247.749C583.76 246.976 584.058 246.236 584.581 245.667C585.104 245.098 585.816 244.739 586.585 244.657L631.696 239.851C632.4 239.777 633.06 239.47 633.569 238.978C634.079 238.486 634.409 237.838 634.507 237.138C635.58 229.47 639.05 205.699 642.496 193.201C645.281 183.102 654.428 173.566 659.939 168.543Z" fill="#575A89"/>
<path d="M842 494.842H530.697V496.323H842V494.842Z" fill="#3F3D56"/>
<path d="M630.627 455.118V475.679L642.203 478.249L649.921 474.393L649.063 458.116L630.627 455.118Z" fill="#FFB8B8"/>
<path d="M699.013 455.118V475.679L710.589 478.249L718.307 474.393L717.449 458.116L699.013 455.118Z" fill="#FFB8B8"/>
<path d="M653.78 288.062C653.78 288.062 638.344 319.331 638.773 343.747C639.031 358.485 638.315 373.223 636.629 387.867L628.912 461.115L653.78 462.4L665.356 383.584L687.651 322.758L696.226 395.149L698.37 467.968H719.807C719.807 467.968 729.669 399.004 724.095 383.584C724.095 383.584 736.957 297.057 726.667 292.773C716.377 288.49 653.78 288.062 653.78 288.062Z" fill="#2F2E41"/>
<path d="M638.344 470.11C638.344 470.11 634.057 454.261 628.054 462.4C622.052 470.539 604.902 484.246 604.902 484.246C604.902 484.246 579.177 497.953 602.758 501.38C626.339 504.807 628.912 497.096 628.912 497.096C628.912 497.096 632.771 494.955 636.201 496.24C639.631 497.525 654.637 497.096 655.495 491.956C656.352 486.816 650.778 458.545 649.063 463.685C647.348 468.825 638.344 470.11 638.344 470.11Z" fill="#2F2E41"/>
<path d="M717.235 469.682C717.235 469.682 717.235 464.97 709.089 464.542C700.942 464.113 699.656 469.682 699.656 469.682C699.656 469.682 697.512 471.824 697.084 478.249C696.655 484.674 697.084 501.38 697.084 501.38C697.084 501.38 693.225 514.23 710.804 511.66C728.382 509.09 721.951 495.811 721.951 495.811L717.235 469.682Z" fill="#2F2E41"/>
<path d="M685.936 128.287L683.792 152.275L679.933 161.27L690.223 175.834L715.52 152.275C715.52 152.275 710.804 139.424 713.805 132.142L685.936 128.287Z" fill="#FFB8B8"/>
<path d="M743.389 169.409L743.191 171.521L735.671 251.652C735.671 251.652 735.375 255.379 734.827 260.347C733.9 268.752 732.254 280.707 730.097 284.207C726.667 289.775 729.24 294.487 729.24 294.487C709.517 306.052 651.207 289.347 651.207 289.347L664.498 236.231C664.498 236.231 652.493 180.974 653.78 175.834C655.066 170.694 682.077 152.275 682.077 152.275L682.875 154.417C694.387 169.837 706.087 156.558 709.517 153.56L716.377 147.563L743.389 169.409Z" fill="#575A89"/>
<path d="M655.218 316.381C614.342 321.922 575.346 323.95 539.262 320.538C526.448 319.241 513.739 317.06 501.226 314.013C478.283 308.587 450.119 308.587 419.176 311.476C400.363 313.15 381.82 317.079 363.946 323.179C339.967 331.472 313.698 330.753 285.848 323.811C274.418 320.838 263.403 316.456 253.056 310.767C232.695 299.835 208.597 303.793 182.334 316.381V218.635C206.854 207.967 230.74 206.245 253.867 215.238C262.299 218.602 271.016 221.2 279.914 223.001C312.056 229.277 345.234 227.78 376.679 218.635C419.2 204.241 463.68 208.715 508.724 218.635C558.908 229.225 607.819 229.849 655.218 218.635V316.381Z" fill="#3F3D56"/>
<path d="M311.303 494.842H0V496.323H311.303V494.842Z" fill="#3F3D56"/>
<path d="M385.283 36.8897L408.692 23.3872L395.177 0.000109058L371.768 13.5026L385.283 36.8897Z" fill="#FF6584"/>
<path d="M298.563 154.63L321.972 141.127L308.457 117.74L285.048 131.242L298.563 154.63Z" fill="#3F3D56"/>
<path d="M536.487 123.528L559.896 110.026L546.381 86.6388L522.972 100.141L536.487 123.528Z" fill="#D0CDE1"/>
<path d="M132.563 313.676L146.718 379.144L103.73 475.513L128.893 486.512L177.123 376.001L146.292 278.948L127.943 283.662L132.563 313.676Z" fill="#2F2E41"/>
<path d="M119.981 295.675C119.981 295.675 125.224 305.102 136.757 312.958C148.29 320.814 172.405 372.665 172.405 372.665L146.193 477.415L182.366 487.366L202.287 364.285L161.396 272.106L119.981 295.675Z" fill="#2F2E41"/>
<path d="M106.875 471.847C106.875 471.847 101.633 477.608 103.73 481.798C105.827 485.988 106.875 496.987 106.875 496.987H111.594V484.417L126.797 498.558C126.797 498.558 161.921 501.701 161.396 498.558C160.872 495.416 140.427 488.083 140.427 488.083L130.466 472.895L106.875 471.847Z" fill="#2F2E41"/>
<path d="M153.008 473.225C153.008 473.225 147.766 478.986 149.863 483.176C151.96 487.366 153.008 498.365 153.008 498.365H157.727V485.795L172.93 499.936C172.93 499.936 208.054 503.079 207.529 499.936C207.005 496.794 186.56 489.461 186.56 489.461L176.599 474.273L153.008 473.225Z" fill="#2F2E41"/>
<path d="M140.427 152.168C151.429 152.168 160.348 143.257 160.348 132.266C160.348 121.274 151.429 112.363 140.427 112.363C129.425 112.363 120.506 121.274 120.506 132.266C120.506 143.257 129.425 152.168 140.427 152.168Z" fill="#A0616A"/>
<path d="M124.175 133.313C124.175 133.313 122.603 153.215 112.642 160.548C102.681 167.88 102.681 174.165 102.681 174.165L143.048 192.497L133.612 172.594C133.612 172.594 130.99 171.547 135.184 166.309C139.378 161.072 143.048 148.502 143.048 148.502L124.175 133.313Z" fill="#A0616A"/>
<path d="M165.328 274.463C154.421 283.976 141.784 291.305 128.106 296.049L118.592 299.35C118.592 299.35 98.4718 274.955 108.632 255.734C110.719 251.671 113.704 248.135 117.36 245.395L117.15 244.478L112.05 222.245L111.594 220.255L96.3906 216.589C96.3906 216.589 96.3434 216.605 96.2543 216.626C95.1167 216.924 87.4051 218.338 93.2452 200.353C97.1302 188.385 99.9472 176.99 101.534 170.025C101.753 169.053 102.167 168.134 102.752 167.326C103.336 166.517 104.077 165.835 104.932 165.321C105.787 164.806 106.737 164.469 107.726 164.331C108.714 164.193 109.72 164.256 110.684 164.516C115.552 165.85 121.599 168.383 125.224 173.118C132.039 182.022 133.416 172.724 133.416 172.724C133.416 172.724 152.484 194.068 151.436 203.495C151.256 206.024 151.333 208.565 151.666 211.079V211.09C151.792 212.21 151.944 213.378 152.117 214.572C153.417 223.392 155.934 233.642 156.856 237.245C156.925 237.502 156.982 237.727 157.029 237.916C157.14 238.351 157.202 238.586 157.202 238.586L165.328 274.463Z" fill="#575A89"/>
<path opacity="0.2" d="M138.33 248.014L134.136 262.155C134.136 262.155 118.052 258.059 108.632 255.734C110.719 251.671 113.704 248.136 117.36 245.395L117.151 244.479L112.05 222.245L111.594 220.255L96.3906 216.589C96.3906 216.589 96.3434 216.605 96.2543 216.626L95.3422 209.78C95.3422 209.78 121.554 211.352 123.127 217.636C124.7 223.921 121.554 230.206 119.981 231.254C118.409 232.301 119.981 231.254 123.127 232.825C126.272 234.396 122.078 232.825 119.981 235.968C117.884 239.11 120.506 236.491 121.03 238.063C121.554 239.634 121.03 237.539 120.506 240.158C119.981 242.776 122.603 240.681 123.127 240.681C123.651 240.681 138.33 248.014 138.33 248.014Z" fill="black"/>
<path d="M133.612 245.395L167.687 254.299C167.687 254.299 186.036 235.444 195.996 241.205C205.957 246.966 178.172 260.06 178.172 260.06L168.211 262.155L132.039 257.965L133.612 245.395Z" fill="#A0616A"/>
<path d="M95.3422 207.685L97.4391 223.398C97.4391 223.398 95.8664 223.397 97.4391 227.064C99.0118 230.73 97.4391 238.062 97.4391 238.062C97.4391 238.062 94.2937 238.586 96.9149 240.157C99.5361 241.729 102.157 245.919 101.109 247.49C100.06 249.061 97.9634 251.156 102.682 252.204C107.4 253.251 134.136 260.06 134.136 260.06L138.33 245.919C138.33 245.919 123.651 238.586 123.127 238.586C122.603 238.586 119.981 240.681 120.506 238.062C121.03 235.444 121.554 237.539 121.03 235.967C120.506 234.396 117.884 237.015 119.981 233.872C122.078 230.73 126.272 232.301 123.127 230.73C119.981 229.159 118.409 230.206 119.981 229.159C121.554 228.111 124.7 221.826 123.127 215.541C121.554 209.256 95.3422 207.685 95.3422 207.685Z" fill="#575A89"/>
<path d="M135.833 167.437L137.412 164.928C138.153 163.752 138.395 162.33 138.086 160.975C137.777 159.62 136.942 158.444 135.765 157.704L123.729 150.141C122.552 149.401 121.128 149.159 119.772 149.468C118.416 149.776 117.239 150.611 116.498 151.787L114.918 154.296C114.029 154.292 113.152 154.514 112.372 154.942C111.593 155.369 110.935 155.989 110.461 156.741L106.574 162.916C105.833 164.092 105.591 165.514 105.9 166.868C106.209 168.223 107.044 169.4 108.221 170.139L124.44 180.33C125.617 181.07 127.04 181.312 128.397 181.004C129.753 180.695 130.93 179.861 131.671 178.685L135.558 172.51C136.031 171.758 136.305 170.897 136.353 170.009C136.401 169.122 136.222 168.237 135.833 167.437Z" fill="#575A89"/>
<path d="M139.733 131.923C140.847 130.297 140.359 128.038 141.156 126.235C142.409 123.405 146.102 122.824 149.194 122.638C151.245 122.425 153.314 122.481 155.35 122.803C156.25 122.975 157.097 123.353 157.824 123.908C158.552 124.462 159.142 125.179 159.545 125.999C159.98 126.925 159.934 124.056 159.731 120.37C159.525 116.609 158.13 113.009 155.746 110.091C153.362 107.172 150.112 105.085 146.465 104.13C146.421 104.119 146.379 104.108 146.336 104.097C142.6 103.14 138.742 102.409 134.901 102.766C131.061 103.123 127.204 104.682 124.741 107.647C123.616 109.002 122.804 110.612 121.554 111.854C119.357 114.035 116.162 114.771 113.22 115.737C109.849 116.733 106.728 118.433 104.063 120.723C101.39 123.048 99.7406 126.333 99.4743 129.864C99.3137 133.943 101.81 138.216 105.976 139.122C106.701 139.267 107.382 139.58 107.963 140.036C111.885 143.229 107.247 146.36 107.194 149.847C107.15 152.756 110.345 154.73 113.25 154.936C115.968 155.051 118.641 154.218 120.811 152.579C122.981 150.941 124.514 148.599 125.145 145.956C125.642 143.579 125.362 141.119 125.136 138.702C124.876 135.936 130.98 129.583 126.937 134.25C126.148 135.136 125.604 136.213 125.358 137.373C124.612 141.161 128.046 142.524 130.18 144.685C131.35 145.906 132.155 147.431 132.503 149.086C132.85 150.74 132.726 152.46 132.145 154.048C133.987 152.461 135.216 150.281 135.62 147.886C136.025 145.49 135.58 143.028 134.362 140.926C133.684 139.83 132.8 138.87 132.159 137.753C131.159 136.009 130.963 132.264 133.875 132.438C135.954 132.561 138.074 134.344 139.733 131.923Z" fill="#2F2E41"/>
<path d="M700.514 139.853C712.59 139.853 722.38 130.072 722.38 118.007C722.38 105.942 712.59 96.1611 700.514 96.1611C688.437 96.1611 678.647 105.942 678.647 118.007C678.647 130.072 688.437 139.853 700.514 139.853Z" fill="#FFB8B8"/>
<path opacity="0.2" d="M742.334 172.377L734.814 252.508C734.814 252.508 734.518 256.235 733.969 261.204C718.007 265.016 673.931 267.929 673.931 267.929L671.787 252.508L720.665 239.23C720.665 239.23 714.662 205.818 721.522 192.111C723.202 188.777 724.705 185.356 726.024 181.863C727.226 178.642 729.508 175.936 732.481 174.207C735.455 172.477 738.937 171.831 742.334 172.377V172.377Z" fill="black"/>
<path d="M676.503 250.367C676.503 250.367 642.632 243.513 646.92 258.077C651.207 272.641 679.505 263.217 679.505 263.217L676.503 250.367Z" fill="#FFB8B8"/>
<path d="M730.097 167.267L743.389 169.409C743.389 169.409 752.821 195.11 751.106 212.672C749.391 230.235 749.82 252.937 738.244 257.221C726.667 261.504 674.788 264.931 674.788 264.931L672.645 249.51L721.522 236.231C721.522 236.231 715.52 202.82 722.38 189.113C729.24 175.406 730.097 167.267 730.097 167.267Z" fill="#575A89"/>
<path d="M681.87 95.8188L677.667 94.1378C677.667 94.1378 686.455 84.4722 698.681 85.3127L695.243 81.5305C695.243 81.5305 703.648 78.1686 711.289 86.9937C715.306 91.6328 719.954 97.0859 722.851 103.229H727.352L725.474 107.361L732.049 111.493L725.3 110.751C725.702 113.014 725.764 115.324 725.483 117.606C725.194 119.887 724.028 121.968 722.233 123.407C722.233 123.407 717.021 112.628 717.021 110.947V115.15C717.021 115.15 712.818 111.368 712.818 108.846L710.525 111.788H695.243L697.535 108.006L688.747 109.267L692.186 104.644L678.58 123.733C678.58 123.733 670.79 102.122 681.87 95.8188Z" fill="#2F2E41"/>
<path d="M418.776 348.963C462.986 348.963 498.826 313.158 498.826 268.989C498.826 224.821 462.986 189.015 418.776 189.015C374.566 189.015 338.727 224.821 338.727 268.989C338.727 313.158 374.566 348.963 418.776 348.963Z" fill="#E63336"/>
<path d="M458.06 284.885C458.06 289.792 440.024 302.101 419.147 302.101C398.27 302.101 382.458 289.792 382.458 284.885C382.458 279.977 398.27 286.551 419.147 286.551C440.024 286.551 458.06 279.977 458.06 284.885Z" fill="#D0CDE1"/>
<path d="M447.683 254.92C452.595 254.92 456.577 250.942 456.577 246.034C456.577 241.126 452.595 237.148 447.683 237.148C442.771 237.148 438.789 241.126 438.789 246.034C438.789 250.942 442.771 254.92 447.683 254.92Z" fill="#3F3D56"/>
<path d="M389.87 254.92C394.782 254.92 398.764 250.942 398.764 246.034C398.764 241.126 394.782 237.148 389.87 237.148C384.957 237.148 380.975 241.126 380.975 246.034C380.975 250.942 384.957 254.92 389.87 254.92Z" fill="#3F3D56"/>
<path d="M395.058 246.034C397.514 246.034 399.505 244.045 399.505 241.591C399.505 239.137 397.514 237.148 395.058 237.148C392.602 237.148 390.611 239.137 390.611 241.591C390.611 244.045 392.602 246.034 395.058 246.034Z" fill="#D0CDE1"/>
<path d="M440.271 246.034C442.727 246.034 444.718 244.045 444.718 241.591C444.718 239.137 442.727 237.148 440.271 237.148C437.815 237.148 435.824 239.137 435.824 241.591C435.824 244.045 437.815 246.034 440.271 246.034Z" fill="#D0CDE1"/>
<path d="M420.259 194.199C437.861 194.199 452.13 179.943 452.13 162.357C452.13 144.772 437.861 130.516 420.259 130.516C402.657 130.516 388.387 144.772 388.387 162.357C388.387 179.943 402.657 194.199 420.259 194.199Z" fill="#E63336"/>
<path d="M410.023 165.653C421.279 172.348 421.683 192.409 421.683 192.409C421.683 192.409 403.838 201.617 392.582 194.922C381.327 188.228 380.923 168.166 380.923 168.166C380.923 168.166 398.768 158.959 410.023 165.653Z" fill="#3F3D56"/>
<path d="M449.845 191.292C439.673 199.537 420.685 192.996 420.685 192.996C420.685 192.996 418.191 173.086 428.363 164.84C438.535 156.595 457.522 163.136 457.522 163.136C457.522 163.136 460.017 183.046 449.845 191.292Z" fill="#3F3D56"/>
</g>
<defs>
<clipPath id="clip0">
<rect width="842" height="512" fill="white"/>
</clipPath>
</defs>
</svg>
