<svg width="605" height="389" viewBox="0 0 605 389" fill="none" xmlns="http://www.w3.org/2000/svg">
<g clip-path="url(#clip0)">
<path d="M605 0.236572H188.348V267.641H605V0.236572Z" fill="#E6E6E6"/>
<path d="M593.086 33.7759H200.262V251.822H593.086V33.7759Z" fill="white"/>
<path d="M604.822 0H188.17V17.7382H604.822V0Z" fill="#E63336"/>
<path d="M201.324 12.3563C203.136 12.3563 204.605 10.8844 204.605 9.06865C204.605 7.25293 203.136 5.78101 201.324 5.78101C199.512 5.78101 198.043 7.25293 198.043 9.06865C198.043 10.8844 199.512 12.3563 201.324 12.3563Z" fill="white"/>
<path d="M213.777 12.3563C215.588 12.3563 217.057 10.8844 217.057 9.06865C217.057 7.25293 215.588 5.78101 213.777 5.78101C211.965 5.78101 210.496 7.25293 210.496 9.06865C210.496 10.8844 211.965 12.3563 213.777 12.3563Z" fill="white"/>
<path d="M226.229 12.3563C228.041 12.3563 229.51 10.8844 229.51 9.06865C229.51 7.25293 228.041 5.78101 226.229 5.78101C224.418 5.78101 222.949 7.25293 222.949 9.06865C222.949 10.8844 224.418 12.3563 226.229 12.3563Z" fill="white"/>
<path d="M481.934 54.1989H354.044C353.771 54.1628 353.52 54.0286 353.338 53.8211C353.157 53.6136 353.057 53.3471 353.057 53.0711C353.057 52.7952 353.157 52.5286 353.338 52.3212C353.52 52.1137 353.771 51.9794 354.044 51.9434H481.934C482.207 51.9794 482.458 52.1137 482.64 52.3212C482.821 52.5286 482.921 52.7952 482.921 53.0711C482.921 53.3471 482.821 53.6136 482.64 53.8211C482.458 54.0286 482.207 54.1628 481.934 54.1989Z" fill="#CCCCCC"/>
<path d="M393.319 66.6042H312.006C311.733 66.5681 311.482 66.4338 311.3 66.2264C311.119 66.0189 311.019 65.7523 311.019 65.4764C311.019 65.2005 311.119 64.9339 311.3 64.7265C311.482 64.519 311.733 64.3847 312.006 64.3486H393.319C393.592 64.3847 393.842 64.519 394.024 64.7265C394.205 64.9339 394.306 65.2005 394.306 65.4764C394.306 65.7523 394.205 66.0189 394.024 66.2264C393.842 66.4338 393.592 66.5681 393.319 66.6042Z" fill="#CCCCCC"/>
<path d="M481.934 66.8297H400.621C400.348 66.7937 400.097 66.6594 399.916 66.4519C399.734 66.2444 399.634 65.9779 399.634 65.702C399.634 65.426 399.734 65.1595 399.916 64.952C400.097 64.7445 400.348 64.6103 400.621 64.5742H481.934C482.207 64.6103 482.458 64.7445 482.64 64.952C482.821 65.1595 482.921 65.426 482.921 65.702C482.921 65.9779 482.821 66.2444 482.64 66.4519C482.458 66.6594 482.207 66.7937 481.934 66.8297H481.934Z" fill="#CCCCCC"/>
<path d="M393.516 79.0097H312.203C311.93 78.9736 311.679 78.8394 311.498 78.6319C311.316 78.4244 311.216 78.1579 311.216 77.8819C311.216 77.606 311.316 77.3394 311.498 77.132C311.679 76.9245 311.93 76.7902 312.203 76.7542H393.516C393.789 76.7902 394.04 76.9245 394.221 77.132C394.403 77.3394 394.503 77.606 394.503 77.8819C394.503 78.1579 394.403 78.4244 394.221 78.6319C394.04 78.8394 393.789 78.9736 393.516 79.0097Z" fill="#CCCCCC"/>
<path d="M393.713 91.4152H312.4C312.127 91.3792 311.877 91.2449 311.695 91.0374C311.513 90.8299 311.413 90.5634 311.413 90.2874C311.413 90.0115 311.513 89.745 311.695 89.5375C311.877 89.33 312.127 89.1957 312.4 89.1597H393.713C393.986 89.1957 394.237 89.33 394.419 89.5375C394.6 89.745 394.7 90.0115 394.7 90.2874C394.7 90.5634 394.6 90.8299 394.419 91.0374C394.237 91.2449 393.986 91.3792 393.713 91.4152Z" fill="#CCCCCC"/>
<path d="M430.62 79.0097H407.331C407.058 78.9736 406.808 78.8394 406.626 78.6319C406.445 78.4244 406.345 78.1579 406.345 77.8819C406.345 77.606 406.445 77.3394 406.626 77.132C406.808 76.9245 407.058 76.7902 407.331 76.7542H430.62C430.893 76.7902 431.144 76.9245 431.325 77.132C431.507 77.3394 431.607 77.606 431.607 77.8819C431.607 78.1579 431.507 78.4244 431.325 78.6319C431.144 78.8394 430.893 78.9736 430.62 79.0097Z" fill="#CCCCCC"/>
<path d="M430.62 91.1894H407.331C407.058 91.1533 406.808 91.019 406.626 90.8116C406.445 90.6041 406.345 90.3376 406.345 90.0616C406.345 89.7857 406.445 89.5191 406.626 89.3117C406.808 89.1042 407.058 88.9699 407.331 88.9338H430.62C430.893 88.9699 431.144 89.1042 431.325 89.3117C431.507 89.5191 431.607 89.7857 431.607 90.0616C431.607 90.3376 431.507 90.6041 431.325 90.8116C431.144 91.019 430.893 91.1533 430.62 91.1894Z" fill="#CCCCCC"/>
<path d="M469.698 91.1894H446.409C446.136 91.1533 445.886 91.019 445.704 90.8116C445.522 90.6041 445.422 90.3376 445.422 90.0616C445.422 89.7857 445.522 89.5191 445.704 89.3117C445.886 89.1042 446.136 88.9699 446.409 88.9338H469.698C469.971 88.9699 470.222 89.1042 470.403 89.3117C470.585 89.5191 470.685 89.7857 470.685 90.0616C470.685 90.3376 470.585 90.6041 470.403 90.8116C470.222 91.019 469.971 91.1533 469.698 91.1894Z" fill="#CCCCCC"/>
<path d="M334.702 54.1989H311.413C311.14 54.1628 310.89 54.0286 310.708 53.8211C310.527 53.6136 310.427 53.3471 310.427 53.0711C310.427 52.7952 310.527 52.5286 310.708 52.3212C310.89 52.1137 311.14 51.9794 311.413 51.9434H334.702C334.975 51.9794 335.226 52.1137 335.407 52.3212C335.589 52.5286 335.689 52.7952 335.689 53.0711C335.689 53.3471 335.589 53.6136 335.407 53.8211C335.226 54.0286 334.975 54.1628 334.702 54.1989Z" fill="#CCCCCC"/>
<path d="M393.023 196.438H311.709C311.436 196.402 311.186 196.268 311.004 196.06C310.823 195.853 310.723 195.586 310.723 195.31C310.723 195.034 310.823 194.768 311.004 194.56C311.186 194.353 311.436 194.219 311.709 194.183H393.023C393.296 194.219 393.546 194.353 393.728 194.56C393.909 194.768 394.01 195.034 394.01 195.31C394.01 195.586 393.909 195.853 393.728 196.06C393.546 196.268 393.296 196.402 393.023 196.438H393.023Z" fill="#CCCCCC"/>
<path d="M392.628 221.249H311.315C311.042 221.213 310.791 221.079 310.61 220.871C310.428 220.664 310.328 220.397 310.328 220.121C310.328 219.845 310.428 219.579 310.61 219.371C310.791 219.164 311.042 219.03 311.315 218.994H392.628C392.901 219.03 393.152 219.164 393.333 219.371C393.515 219.579 393.615 219.845 393.615 220.121C393.615 220.397 393.515 220.664 393.333 220.871C393.152 221.079 392.901 221.213 392.628 221.249H392.628Z" fill="#CCCCCC"/>
<path d="M392.825 233.654H311.512C311.239 233.618 310.988 233.484 310.807 233.277C310.625 233.069 310.525 232.803 310.525 232.527C310.525 232.251 310.625 231.984 310.807 231.777C310.988 231.569 311.239 231.435 311.512 231.399H392.825C393.098 231.435 393.349 231.569 393.531 231.777C393.712 231.984 393.812 232.251 393.812 232.527C393.812 232.803 393.712 233.069 393.531 233.277C393.349 233.484 393.098 233.618 392.825 233.654H392.825Z" fill="#CCCCCC"/>
<path d="M427.561 221.475H404.272C403.999 221.439 403.749 221.304 403.567 221.097C403.386 220.889 403.285 220.623 403.285 220.347C403.285 220.071 403.386 219.804 403.567 219.597C403.749 219.389 403.999 219.255 404.272 219.219H427.561C427.834 219.255 428.085 219.389 428.266 219.597C428.448 219.804 428.548 220.071 428.548 220.347C428.548 220.623 428.448 220.889 428.266 221.097C428.085 221.304 427.834 221.439 427.561 221.475Z" fill="#CCCCCC"/>
<path d="M427.561 233.654H404.272C403.999 233.618 403.749 233.484 403.567 233.277C403.386 233.069 403.285 232.803 403.285 232.527C403.285 232.251 403.386 231.984 403.567 231.777C403.749 231.569 403.999 231.435 404.272 231.399H427.561C427.834 231.435 428.085 231.569 428.266 231.777C428.448 231.984 428.548 232.251 428.548 232.527C428.548 232.803 428.448 233.069 428.266 233.277C428.085 233.484 427.834 233.618 427.561 233.654Z" fill="#CCCCCC"/>
<path d="M466.639 221.475H443.35C443.077 221.439 442.826 221.304 442.645 221.097C442.463 220.889 442.363 220.623 442.363 220.347C442.363 220.071 442.463 219.804 442.645 219.597C442.826 219.389 443.077 219.255 443.35 219.219H466.639C466.912 219.255 467.162 219.389 467.344 219.597C467.526 219.804 467.626 220.071 467.626 220.347C467.626 220.623 467.526 220.889 467.344 221.097C467.162 221.304 466.912 221.439 466.639 221.475Z" fill="#CCCCCC"/>
<path d="M482.033 208.844H354.142C353.869 208.808 353.619 208.673 353.437 208.466C353.256 208.258 353.156 207.992 353.156 207.716C353.156 207.44 353.256 207.173 353.437 206.966C353.619 206.758 353.869 206.624 354.142 206.588H482.033C482.306 206.624 482.557 206.758 482.738 206.966C482.92 207.173 483.02 207.44 483.02 207.716C483.02 207.992 482.92 208.258 482.738 208.466C482.557 208.673 482.306 208.808 482.033 208.844Z" fill="#CCCCCC"/>
<path d="M334.801 208.844H311.512C311.239 208.808 310.988 208.673 310.807 208.466C310.625 208.258 310.525 207.992 310.525 207.716C310.525 207.44 310.625 207.173 310.807 206.966C310.988 206.758 311.239 206.624 311.512 206.588H334.801C335.074 206.624 335.324 206.758 335.506 206.966C335.688 207.173 335.788 207.44 335.788 207.716C335.788 207.992 335.688 208.258 335.506 208.466C335.324 208.673 335.074 208.808 334.801 208.844Z" fill="#CCCCCC"/>
<path d="M373.385 111.454L341.807 142.703L373.385 173.952L380.49 166.832L356.609 142.9L380.687 118.772L373.385 111.454Z" fill="#E6E6E6"/>
<path d="M419.963 111.454L451.54 142.703L419.963 173.952L412.858 166.832L436.738 142.9L412.66 118.772L419.963 111.454Z" fill="#E6E6E6"/>
<path d="M373.385 111.454L341.807 142.703L373.385 173.952L380.49 166.832L356.609 142.9L380.687 118.772L373.385 111.454Z" fill="#E63336"/>
<path d="M419.963 111.454L451.54 142.703L419.963 173.952L412.858 166.832L436.738 142.9L412.66 118.772L419.963 111.454Z" fill="#E63336"/>
<path d="M320.671 372.854C330.496 386.041 350.892 387.429 350.892 387.429C350.892 387.429 355.358 367.437 345.532 354.251C335.707 341.065 315.311 339.677 315.311 339.677C315.311 339.677 310.845 359.668 320.671 372.854Z" fill="#E6E6E6"/>
<path d="M370.724 377.812C364.241 386.513 350.782 387.429 350.782 387.429C350.782 387.429 347.835 374.237 354.319 365.536C360.802 356.835 374.261 355.919 374.261 355.919C374.261 355.919 377.208 369.11 370.724 377.812Z" fill="#E6E6E6"/>
<path d="M102.091 314.785V349.013H92.3323L85.8269 313.155L102.091 314.785Z" fill="#FFB9B9"/>
<path d="M24.8338 314.785V349.013H15.0754L8.56934 313.155L24.8338 314.785Z" fill="#FFB9B9"/>
<path d="M76.3157 62.4676C76.3157 62.4676 60.6338 51.1725 58.6736 56.5745C56.7134 61.9765 70.435 71.7983 70.435 71.7983L76.3157 62.4676Z" fill="#FFB9B9"/>
<path d="M20.6942 76.9547C20.6942 96.4826 29.0842 97.0893 42.7521 97.0893C56.4199 97.0893 70.19 96.4826 70.19 76.9547C70.19 57.4267 59.1099 41.5962 45.442 41.5962C31.7741 41.5962 20.6942 57.4267 20.6942 76.9547Z" fill="#2F2E41"/>
<path d="M54.2631 76.7093C54.2631 76.7093 52.3028 91.442 61.6139 92.4241C70.925 93.4063 31.2303 96.3529 31.2303 96.3529C31.2303 96.3529 41.5215 87.0221 36.1309 79.6558C30.7403 72.2895 54.2631 76.7093 54.2631 76.7093Z" fill="#FFB9B9"/>
<path d="M103.759 339.934L107.189 368.908C107.189 368.908 124.341 390.025 113.56 388.551C102.779 387.078 95.9179 388.865 95.9179 386.9C95.9179 384.936 95.6644 377.918 94.1942 377.918C92.7241 377.918 91.5074 389 91.5074 389C91.5074 389 87.0969 388.666 86.6068 388.175C86.1168 387.684 85.6267 359.577 85.6267 359.577C85.6267 359.577 84.1565 351.229 87.0969 347.3C90.0372 343.371 89.5472 339.934 89.5472 339.934L103.759 339.934Z" fill="#2F2E41"/>
<path d="M25.6882 339.615L29.1186 368.589C29.1186 368.589 46.2706 389.706 35.4894 388.233C24.7081 386.759 17.8473 388.546 17.8473 386.582C17.8473 384.617 17.5938 377.599 16.1236 377.599C14.6534 377.599 13.4368 388.681 13.4368 388.681C13.4368 388.681 9.02625 388.347 8.53619 387.856C8.04613 387.365 7.55608 359.258 7.55608 359.258C7.55608 359.258 6.08591 350.91 9.02625 346.981C11.9666 343.052 11.4765 339.615 11.4765 339.615H25.6882Z" fill="#2F2E41"/>
<path d="M78.2758 167.561C78.2758 167.561 93.9577 212.25 94.9378 222.072C95.9179 231.894 93.9577 265.288 93.9577 265.288C93.9577 265.288 108.169 322.987 105.229 323.478C102.289 323.969 85.9142 326.297 85.4242 323.842C84.9341 321.386 83.187 317.585 83.677 316.111C84.1671 314.638 82.2069 309.236 82.2069 306.29C82.2069 303.343 75.3355 287.878 75.8255 285.422C76.3156 282.967 67.4946 246.626 66.0244 243.68C64.5542 240.733 60.6338 220.107 60.6338 220.107C60.6338 220.107 38.5812 280.511 38.0911 281.985C37.6011 283.458 35.6408 285.913 36.6209 286.405C37.6011 286.896 35.1508 290.333 35.1508 290.333C35.1508 290.333 30.0727 310.709 30.0727 311.692C30.0727 312.674 31.0529 323.791 29.0926 324.282C27.1324 324.773 7.10956 324.742 6.12945 321.304C5.14933 317.867 16.5286 278.056 16.5286 278.056C16.5286 278.056 24.8596 253.01 22.4093 246.626C19.959 240.242 24.8596 201.937 26.8198 198.991C28.78 196.044 29.2701 178.365 29.2701 178.365L78.2758 167.561Z" fill="#2F2E41"/>
<path d="M45.6871 84.8123C54.3479 84.8123 61.3689 77.7765 61.3689 69.0974C61.3689 60.4184 54.3479 53.3826 45.6871 53.3826C37.0262 53.3826 30.0052 60.4184 30.0052 69.0974C30.0052 77.7765 37.0262 84.8123 45.6871 84.8123Z" fill="#FFB9B9"/>
<path d="M54.2631 88.9865C54.2631 88.9865 36.621 89.4776 35.6409 88.0044C34.6608 86.5311 10.1579 91.442 10.1579 101.264C10.1579 111.086 24.3696 149.391 24.3696 149.391C24.3696 149.391 29.7602 176.892 28.29 179.838C26.8199 182.785 82.6864 173.454 81.2162 168.543C79.7461 163.632 71.4151 152.828 82.1963 143.498C92.9776 134.167 97.3881 124.345 97.3881 124.345L84.6466 90.4598C84.6466 90.4598 71.9051 88.4954 68.9648 90.4598C66.0244 92.4241 54.2631 88.9865 54.2631 88.9865Z" fill="#E63336"/>
<path d="M93.9577 126.801L97.3881 124.345C97.3881 124.345 129.242 90.9511 120.911 84.5669C112.58 78.1828 100.328 72.2897 94.4478 71.7986C88.5671 71.3075 83.6665 66.8877 83.6665 66.8877C83.6665 66.8877 77.2958 55.5926 72.3952 62.959C67.4946 70.3253 62.104 72.7808 68.9648 75.2362C75.8256 77.6917 80.2361 76.7095 83.6665 79.165C87.0969 81.6204 100.328 85.5491 94.4478 87.0224C91.0756 87.8415 87.7925 88.993 84.6466 90.46L78.2759 101.755L93.9577 126.801Z" fill="#E63336"/>
<path d="M38.5812 209.795C38.5812 209.795 51.3227 228.456 42.0116 227.474C32.7006 226.492 28.29 213.723 28.29 213.723L38.5812 209.795Z" fill="#FFB9B9"/>
<path d="M13.5883 98.8083L10.1579 101.264C10.1579 101.264 -1.11341 163.141 10.1579 179.347C21.4292 195.553 22.4094 194.571 22.4094 194.571C22.4094 194.571 24.3696 193.098 25.3497 202.919C26.3298 212.741 24.8596 216.67 27.8 216.67C30.7403 216.67 43.9719 213.723 42.9918 211.268C42.0117 208.812 35.6409 194.571 35.1508 191.133C34.6608 187.696 32.2105 179.838 31.2304 175.418C30.2503 170.999 35.6409 168.543 33.1906 159.212C30.7403 149.882 27.3099 133.185 27.3099 129.747C27.3099 126.309 13.5883 98.8083 13.5883 98.8083Z" fill="#E63336"/>
<path d="M30.4953 55.1014C30.4953 60.3902 37.7357 64.6776 46.6672 64.6776C55.5987 64.6776 63.8192 67.511 63.8192 62.2222C63.8192 56.9334 55.5987 45.5251 46.6672 45.5251C37.7357 45.5251 30.4953 49.8126 30.4953 55.1014Z" fill="#2F2E41"/>
<path d="M70.043 80.269C70.043 80.269 70.7031 98.0716 53.0495 97.0894C35.3959 96.1072 55.4352 81.8721 55.4352 81.8721L70.043 80.269Z" fill="#2F2E41"/>
<path d="M478.963 387.429H0V388.959H478.963V387.429Z" fill="#3F3D56"/>
</g>
<defs>
<clipPath id="clip0">
<rect width="605" height="389" fill="white"/>
</clipPath>
</defs>
</svg>
