<svg width="669" height="409" viewBox="0 0 669 409" fill="none" xmlns="http://www.w3.org/2000/svg">
<g clip-path="url(#clip0)">
<path d="M252.982 257.005C252.705 256.729 246.122 250.055 240.541 234.219C235.422 219.69 230.256 194.354 234.72 156.16C243.177 83.8032 199.81 37.6903 199.37 37.2329L200.654 35.9988C200.765 36.1148 211.916 47.849 221.836 68.4489C234.968 95.765 240.05 126.262 236.488 156.367C228.045 228.6 253.975 255.479 254.238 255.743L252.982 257.005Z" fill="#F2F2F2"/>
<path d="M186.054 36.0204C192.441 36.0204 197.619 30.8368 197.619 24.4426C197.619 18.0483 192.441 12.8647 186.054 12.8647C179.667 12.8647 174.489 18.0483 174.489 24.4426C174.489 30.8368 179.667 36.0204 186.054 36.0204Z" fill="#F2F2F2"/>
<path d="M231.616 68.8883C238.004 68.8883 243.182 63.7048 243.182 57.3105C243.182 50.9162 238.004 45.7327 231.616 45.7327C225.229 45.7327 220.051 50.9162 220.051 57.3105C220.051 63.7048 225.229 68.8883 231.616 68.8883Z" fill="#F2F2F2"/>
<path d="M214.17 102.489C220.557 102.489 225.735 97.3056 225.735 90.9113C225.735 84.5171 220.557 79.3335 214.17 79.3335C207.783 79.3335 202.605 84.5171 202.605 90.9113C202.605 97.3056 207.783 102.489 214.17 102.489Z" fill="#F2F2F2"/>
<path d="M249.252 118.667C255.639 118.667 260.817 113.483 260.817 107.089C260.817 100.695 255.639 95.5111 249.252 95.5111C242.864 95.5111 237.687 100.695 237.687 107.089C237.687 113.483 242.864 118.667 249.252 118.667Z" fill="#F2F2F2"/>
<path d="M220.088 164.3C226.475 164.3 231.653 159.116 231.653 152.722C231.653 146.328 226.475 141.144 220.088 141.144C213.701 141.144 208.523 146.328 208.523 152.722C208.523 159.116 213.701 164.3 220.088 164.3Z" fill="#F2F2F2"/>
<path d="M259.871 255.76C259.871 255.76 241.883 230.82 270.524 201.817L259.871 255.76Z" fill="#F2F2F2"/>
<path d="M245.931 258.635C245.931 258.635 233.637 230.443 194.123 240.369L245.931 258.635Z" fill="#F2F2F2"/>
<path d="M470.934 347.305C470.885 346.721 469.853 332.723 478.842 309.26C487.09 287.735 505.758 253.85 547.86 214.669C627.618 140.444 622.898 45.7841 622.84 44.8358L625.498 44.6765C625.513 44.9169 626.845 69.1162 618.184 102.222C606.673 146.099 582.907 185.783 549.673 216.622C470.05 290.721 473.543 346.531 473.588 347.086L470.934 347.305Z" fill="#F2F2F2"/>
<path d="M620.064 34.6555C629.622 34.6555 637.37 26.8984 637.37 17.3296C637.37 7.76083 629.622 0.00378418 620.064 0.00378418C610.505 0.00378418 602.757 7.76083 602.757 17.3296C602.757 26.8984 610.505 34.6555 620.064 34.6555Z" fill="#F2F2F2"/>
<path d="M640.122 116.357C649.68 116.357 657.429 108.6 657.429 99.0309C657.429 89.4621 649.68 81.7051 640.122 81.7051C630.564 81.7051 622.815 89.4621 622.815 99.0309C622.815 108.6 630.564 116.357 640.122 116.357Z" fill="#F2F2F2"/>
<path d="M587.681 137.695C597.239 137.695 604.987 129.938 604.987 120.369C604.987 110.8 597.239 103.043 587.681 103.043C578.122 103.043 570.374 110.8 570.374 120.369C570.374 129.938 578.122 137.695 587.681 137.695Z" fill="#F2F2F2"/>
<path d="M611.973 190.201C621.531 190.201 629.279 182.444 629.279 172.875C629.279 163.306 621.531 155.549 611.973 155.549C602.414 155.549 594.666 163.306 594.666 172.875C594.666 182.444 602.414 190.201 611.973 190.201Z" fill="#F2F2F2"/>
<path d="M534.52 213.867C544.079 213.867 551.827 206.109 551.827 196.541C551.827 186.972 544.079 179.215 534.52 179.215C524.962 179.215 517.213 186.972 517.213 196.541C517.213 206.109 524.962 213.867 534.52 213.867Z" fill="#F2F2F2"/>
<path d="M479.989 352.577C479.989 352.577 483.665 306.691 544.405 301.464L479.989 352.577Z" fill="#F2F2F2"/>
<path d="M461.32 342.314C461.32 342.314 474.635 298.252 419.995 271.183L461.32 342.314Z" fill="#F2F2F2"/>
<path d="M83.5699 303.429C77.8007 324.779 58.04 338.001 58.04 338.001C58.04 338.001 47.6329 316.609 53.4021 295.259C59.1713 273.909 78.932 260.687 78.932 260.687C78.932 260.687 89.3391 282.079 83.5699 303.429Z" fill="#E63336"/>
<path d="M31.0864 303.429C36.8556 324.779 56.6163 338.001 56.6163 338.001C56.6163 338.001 67.0234 316.609 61.2542 295.259C55.485 273.909 35.7243 260.687 35.7243 260.687C35.7243 260.687 25.3172 282.079 31.0864 303.429Z" fill="#E63336"/>
<path d="M39.5638 298.841C55.3945 314.268 57.3281 337.984 57.3281 337.984C57.3281 337.984 33.5951 336.687 17.7643 321.259C1.93361 305.832 0 282.116 0 282.116C0 282.116 23.7331 283.413 39.5638 298.841Z" fill="#3F3D56"/>
<path d="M75.0925 298.841C59.2617 314.268 57.3281 337.984 57.3281 337.984C57.3281 337.984 81.0612 336.687 96.8919 321.259C112.723 305.832 114.656 282.116 114.656 282.116C114.656 282.116 90.9232 283.413 75.0925 298.841Z" fill="#3F3D56"/>
<path d="M669 383.875H5.84735V385.419H669V383.875Z" fill="#2F2E41"/>
<path d="M355.869 146.762C355.869 146.762 348.986 139.872 333.156 141.25C333.156 141.25 180.361 125.402 176.919 153.652C173.478 181.902 172.79 198.439 181.737 204.64C181.737 204.64 210.989 231.167 195.847 254.594L187.588 268.375L511.762 265.618C511.762 265.618 515.203 215.32 525.527 205.673C535.851 196.027 539.292 145.039 525.527 143.661C511.762 142.283 352.084 134.704 355.869 146.762Z" fill="#3F3D56"/>
<path d="M184.835 202.917C184.835 202.917 87.7888 225.655 126.332 268.375L132.526 274.576L129.773 369.661H577.147L581.965 276.643L587.471 265.618C587.471 265.618 621.76 224.449 522.712 209.549L504.879 254.594L203.418 252.527C203.418 252.527 201.353 201.539 184.835 202.917Z" fill="#3F3D56"/>
<path d="M166.251 363.46H138.032V384.819H166.251V363.46Z" fill="#3F3D56"/>
<path d="M572.329 363.46H544.11V384.819H572.329V363.46Z" fill="#3F3D56"/>
<path d="M350.634 254.939C350.634 254.939 283.257 207.051 199.288 255.283L174.51 291.112L179.328 320.74C179.328 320.74 353.46 323.496 355.525 304.893C357.59 286.289 350.634 254.939 350.634 254.939Z" fill="#3F3D56"/>
<path d="M508.32 255.283C508.32 255.283 390.109 217.387 354.578 255.283L358.966 309.716C358.966 309.716 531.722 322.807 534.475 313.85C537.228 304.893 538.604 289.045 538.604 289.045L508.32 255.283Z" fill="#3F3D56"/>
<path opacity="0.1" d="M508.32 255.283C508.32 255.283 390.109 217.387 354.578 255.283L354.676 256.497C354.559 255.934 354.493 255.628 354.493 255.628C354.493 255.628 283.257 207.051 199.288 255.283L174.51 291.112L179.328 320.74C179.328 320.74 347.943 324.331 358.776 307.356L358.966 309.716C358.966 309.716 531.721 322.807 534.475 313.85C537.228 304.893 538.604 289.045 538.604 289.045L508.32 255.283Z" fill="black"/>
<path d="M187.588 160.198C221.04 159.486 252.752 155.235 281.88 145.728C282.589 179.271 287.406 210.641 298.399 238.747C265.834 232.822 232.782 238.685 199.288 255.283C205.304 224.962 200.103 193.087 187.588 160.198Z" fill="#E63336"/>
<path d="M529.657 165.71C496.205 164.998 464.492 160.748 435.364 151.24C434.655 184.783 429.838 216.153 418.846 244.259C451.411 238.334 484.462 244.197 517.956 260.795C511.94 230.474 517.141 198.599 529.657 165.71Z" fill="#E63336"/>
<path d="M314.829 156.907C316.778 155.519 318.928 154.44 321.205 153.707C335.64 148.33 350.765 145.033 366.127 143.917C379.484 142.969 393.962 144.095 404.394 152.499C406.017 153.691 407.345 155.24 408.276 157.027C409.589 159.862 409.191 163.158 408.766 166.254C408.671 167.455 408.368 168.63 407.872 169.728C406.468 172.404 403.012 173.341 400.01 173.02C397.007 172.699 394.19 171.428 391.229 170.838C389.396 170.518 387.543 170.329 385.683 170.273L367.11 169.266C355.561 168.64 343.86 168.025 332.531 170.358C329.044 170.986 325.674 172.148 322.541 173.805C319.953 175.259 318.211 177.346 315.81 174.66C311.592 169.94 309.257 161.266 314.829 156.907Z" fill="#2F2E41"/>
<path d="M343.609 165.13C343.609 165.13 368.59 153.919 378.066 166.854C387.541 179.79 372.897 174.616 372.897 174.616L356.53 179.79L338.441 176.34L343.609 165.13Z" fill="#F2F2F2"/>
<path d="M344.901 156.937C344.901 156.937 348.347 173.322 345.763 177.634C343.179 181.946 360.407 187.982 360.407 187.982L376.774 181.083C376.774 181.083 372.467 154.35 376.774 149.176L344.901 156.937Z" fill="#FFB9B9"/>
<path opacity="0.1" d="M344.901 156.937C344.901 156.937 348.347 173.322 345.763 177.634C343.179 181.946 360.407 187.982 360.407 187.982L376.774 181.083C376.774 181.083 372.467 154.35 376.774 149.176L344.901 156.937Z" fill="black"/>
<path d="M328.76 353.953C331.225 358.683 332.822 363.808 334.452 368.887C334.477 369.056 334.536 369.219 334.627 369.364C334.719 369.508 334.839 369.632 334.982 369.727C335.124 369.822 335.285 369.885 335.453 369.914C335.622 369.942 335.795 369.934 335.96 369.891L351.282 369.874C353.173 369.872 355.71 369.264 355.69 367.371C355.677 366.041 354.319 365.212 353.308 364.348C350.503 361.952 349.773 358.002 348.611 354.499C346.353 347.75 342.002 341.9 336.191 337.799C335.406 337.183 334.502 336.736 333.536 336.485C332.565 336.344 331.575 336.398 330.625 336.644C327.936 337.187 317.891 339.045 319.789 342.962C320.606 344.648 323.633 346.404 324.903 347.979C326.382 349.838 327.674 351.839 328.76 353.953Z" fill="#575A89"/>
<path d="M382.041 336.163C381.501 337.3 380.9 338.406 380.24 339.478C378.02 343.143 375.4 346.562 373.333 350.315C372.044 352.656 370.959 355.187 370.816 357.857C370.674 360.526 371.613 363.368 373.74 364.984C375.965 366.674 379.014 366.752 381.778 366.358C384.543 365.965 387.291 365.171 390.075 365.38C389.137 360.062 393.617 355.382 394.737 350.099C395.052 348.615 395.099 347.077 395.52 345.62C395.974 344.288 396.555 343.002 397.255 341.781C399.486 337.432 401.062 332.776 401.934 327.965C402.039 327.382 388.314 327.286 387.026 327.565C383.009 328.435 383.596 332.827 382.041 336.163Z" fill="#575A89"/>
<path d="M276.251 252.614C272.332 258.753 273.235 266.888 275.987 273.632C278.739 280.375 283.119 286.337 286.117 292.975C288.028 297.207 289.368 301.694 291.521 305.808C294.186 310.902 298.077 315.393 299.865 320.858C301.005 324.342 301.266 328.16 303.113 331.326C304.229 333.018 305.503 334.6 306.917 336.051C310.895 340.612 313.881 345.952 315.686 351.731C317.374 346.698 322.428 343.398 327.618 342.31C332.809 341.221 338.187 341.961 343.438 342.703C340.509 338.16 337.552 333.56 335.805 328.443C334.117 323.494 333.618 318.23 332.481 313.126C330.148 302.659 325.165 293.005 320.232 283.486L345.589 281.473C349.728 281.056 353.889 280.902 358.047 281.01C364.592 281.319 371.004 282.925 377.514 283.667C384.024 284.41 390.911 284.215 396.713 281.167C385.619 297.102 379.841 316.14 380.206 335.56C382.685 333.637 385.563 332.293 388.628 331.627C391.694 330.961 394.869 330.99 397.922 331.711C400.975 332.432 403.828 333.828 406.272 335.796C408.717 337.763 410.691 340.253 412.05 343.084C421.987 329.489 420.806 310.564 428.68 295.676C430.299 292.615 432.283 289.763 434.031 286.774C437.487 280.861 439.994 274.45 442.486 268.069C444.689 262.429 446.907 256.154 444.795 250.479C443.918 248.327 442.64 246.36 441.03 244.684C436.487 239.67 430.163 235.961 423.403 235.806C413.024 235.569 404.451 243.27 395.347 248.264C384.624 254.146 372.114 256.484 359.917 255.62C347.411 254.733 335.468 250.636 323.554 247.027C317.594 245.137 311.536 243.573 305.407 242.34C300.298 241.381 295.432 242.443 290.397 243.751C284.915 245.175 279.406 247.672 276.251 252.614Z" fill="#2F2E41"/>
<path d="M384.526 140.552C384.521 147.412 381.796 153.989 376.951 158.84C372.106 163.69 365.536 166.418 358.684 166.423C357.144 166.426 355.607 166.287 354.093 166.009C349.256 165.135 344.769 162.898 341.158 159.561C337.547 156.224 334.961 151.925 333.704 147.169C332.446 142.413 332.57 137.397 334.06 132.708C335.55 128.02 338.345 123.854 342.116 120.699C345.887 117.545 350.479 115.532 355.352 114.898C360.226 114.263 365.179 115.033 369.631 117.117C374.083 119.201 377.849 122.513 380.487 126.664C383.125 130.815 384.527 135.633 384.526 140.552Z" fill="#FFB9B9"/>
<path d="M343.609 165.13C343.609 165.13 348.347 167.286 350.07 169.01C351.793 170.735 356.961 180.221 365.575 174.184C374.189 168.148 375.051 164.698 377.635 164.698C380.219 164.698 383.665 169.873 383.665 169.873L407.354 241.017C400.969 248.232 393.57 254.477 385.388 259.558C371.605 268.181 355.238 272.493 347.486 269.044C339.733 265.594 325.089 263.007 322.505 256.108C319.92 249.209 315.613 228.513 315.613 228.513L327.673 175.909L343.609 165.13Z" fill="#F2F2F2"/>
<path d="M340.283 237.083C342.161 233.022 342.434 228.425 342.593 223.953C342.846 219.524 342.729 215.081 342.243 210.671C341.479 204.903 339.603 199.345 338.418 193.649C337.379 188.652 336.874 183.559 336.911 178.456C336.929 176.128 337.097 173.676 338.365 171.724C339.249 170.361 340.632 169.306 341.185 167.779C342.268 164.784 339.591 161.648 336.657 160.414C333.167 158.947 329.178 159.046 325.506 159.966C321.834 160.887 318.41 162.581 315.017 164.262C312.567 165.477 310.064 166.729 308.164 168.697C305.49 171.467 304.314 175.325 303.365 179.058C302.605 182.046 301.93 185.161 302.508 188.19C303.447 193.107 307.451 196.806 309.586 201.334C312.065 206.591 311.898 212.718 310.912 218.447C309.926 224.177 308.176 229.779 307.636 235.567C307.096 241.356 307.925 247.579 311.547 252.123C313.024 253.974 317.028 258.363 319.731 257.866C321.854 257.476 324.932 252.797 326.643 251.314C331.584 247.029 337.446 243.218 340.283 237.083Z" fill="#2F2E41"/>
<path d="M385.415 162.317C385.49 167.127 383.373 171.699 380.882 175.812C378.392 179.926 375.466 183.816 373.631 188.262C371.35 193.827 370.884 199.971 372.3 205.816C372.827 207.807 373.461 209.768 374.201 211.69L378.92 224.65C379.555 226.688 380.477 228.625 381.657 230.403C382.724 231.764 383.976 232.97 385.377 233.985C388.962 236.883 393.087 239.038 397.513 240.323C401.953 241.498 406.812 241.424 411.007 239.552C411.462 221.983 414.282 204.555 419.39 187.741C420.334 184.637 421.365 181.369 420.637 178.207C419.822 174.665 416.98 172.006 414.279 169.578C406.018 162.152 396.934 154.351 385.877 153.35C379.477 152.771 385.36 158.84 385.415 162.317Z" fill="#2F2E41"/>
<path d="M328.885 262.579C329.54 263.863 329.948 265.261 330.596 266.548C331.552 268.275 332.734 269.866 334.111 271.28C339.871 277.673 346.911 284.042 355.502 284.428C356.356 284.508 357.216 284.399 358.024 284.11C359.527 283.485 360.414 281.873 360.707 280.27C361.316 276.93 359.843 273.598 358.369 270.541C355.174 263.915 351.578 257.121 345.595 252.847C339.697 248.635 331.794 247.612 324.916 249.733C321.8 250.694 316.632 252.373 320.758 255.219C323.889 257.379 327.07 259.022 328.885 262.579Z" fill="#FFB9B9"/>
<path d="M334.053 366.935C331.485 370.428 332 375.422 329.725 379.114C327.753 382.314 324.037 383.992 321.571 386.828C320.784 387.77 320.082 388.78 319.474 389.847C317.186 393.684 315.326 398.601 317.58 402.458C319.392 405.561 323.203 406.774 326.697 407.6C331.114 408.645 335.703 409.481 340.17 408.683C344.638 407.884 349.004 405.146 350.597 400.891C350.91 399.822 351.283 398.77 351.712 397.742C354.134 392.969 361.729 392.918 364.207 388.175C365.942 384.855 364.347 380.843 362.754 377.454L357.887 367.102C356.271 363.666 349.723 365.642 346.31 364.819C341.858 363.745 337.256 362.562 334.053 366.935Z" fill="#2F2E41"/>
<path d="M371.7 358.042C369.635 359.491 368.299 361.765 367.296 364.081C364.887 369.645 364.06 375.744 363.257 381.754C362.935 384.161 362.615 386.626 363.118 389.002C364.156 393.91 368.598 397.525 373.381 399.026C378.163 400.526 383.292 400.295 388.297 400.049C389.905 399.971 391.576 399.874 392.986 399.096C395.502 397.708 396.485 394.443 396.053 391.6C395.622 388.757 394.07 386.227 392.551 383.786C391.033 381.345 389.48 378.817 389.045 375.974C388.313 371.192 390.378 364.173 387.443 359.847C384.503 355.512 375.625 355.288 371.7 358.042Z" fill="#2F2E41"/>
<path d="M383.876 127.07C383.417 125.523 382.404 124.2 381.031 123.353C381.102 121.695 380.899 120.038 380.431 118.447C378.866 113.815 375.158 114.08 371.66 112.033C370.142 111.144 370.236 110.359 369.446 108.9C368.411 106.987 366.86 105.403 364.971 104.328C362.726 102.897 360.357 101.423 357.702 101.241C352.123 100.861 347.845 106.114 342.513 107.8C340.162 108.543 337.637 108.574 335.274 109.277C332.911 109.979 330.553 111.657 330.201 114.099C330.039 115.226 330.326 116.383 330.161 117.51C329.833 119.751 327.869 121.32 326.555 123.163C323.649 127.237 323.981 132.994 326.305 137.428C326.795 138.345 327.356 139.223 327.981 140.054C328.175 142.149 328.776 144.187 329.751 146.051C332.075 150.485 336.075 153.798 340.253 156.551C339.911 155.08 339.704 153.582 339.633 152.074C339.574 151.571 339.64 151.062 339.824 150.59C340.289 149.616 341.518 149.358 342.456 148.824C344.397 147.72 345.159 145.275 345.215 143.04C345.271 140.805 344.798 138.566 345.032 136.343C345.041 135.832 345.157 135.328 345.373 134.864C345.588 134.401 345.898 133.988 346.283 133.651C347 133.242 347.818 133.047 348.642 133.088C352.621 132.926 356.777 132.853 360.286 130.969C361.483 130.327 362.596 129.477 363.911 129.134C366.893 128.355 369.941 130.448 371.659 133.009C373.378 135.57 374.235 138.617 375.821 141.263C377.406 143.908 380.146 146.268 383.212 145.954C383.384 145.955 383.555 145.918 383.713 145.848C383.871 145.778 384.012 145.675 384.127 145.547C384.259 145.309 384.318 145.037 384.296 144.766L384.467 133.033C384.609 131.026 384.41 129.01 383.876 127.07Z" fill="#2F2E41"/>
<path d="M302.093 188.44C299.627 192.082 296.785 195.583 295.429 199.768C294.633 202.227 294.385 204.828 293.809 207.348C291.888 215.743 286.338 223.2 285.78 231.794C285.585 233.704 285.865 235.632 286.596 237.407C288.188 240.874 291.998 242.701 295.632 243.85C299.266 244.999 303.169 245.827 306.07 248.302C307.53 249.703 308.854 251.24 310.025 252.892C314.758 258.785 321.124 263.146 328.325 265.427C327.757 261.503 327.49 256.774 330.623 254.348C332.319 253.035 334.585 252.802 336.721 252.617L346.814 251.744C340.084 245.209 332.666 239.423 324.689 234.489C321.898 232.763 318.861 230.943 317.586 227.916C316.79 226.025 316.801 223.906 316.782 221.853C316.712 214.338 316.077 206.839 314.88 199.42C314.049 194.269 312.949 189.164 311.691 184.1C311.338 182.679 309.25 176.302 306.68 177.794C306.075 178.146 305.508 182.191 305.155 183.03C304.314 184.929 303.288 186.741 302.093 188.44Z" fill="#2F2E41"/>
<path opacity="0.1" d="M316.06 199.495C316.174 205.586 314.882 211.622 312.283 217.132C311.607 218.349 311.109 219.658 310.804 221.017C310.352 223.916 312 226.723 313.884 228.971C317.6 233.392 322.42 236.749 327.853 238.7" fill="black"/>
<path d="M380.367 168.593L380.975 168.689C380.443 168.605 379.966 168.312 379.649 167.876C379.333 167.44 379.202 166.896 379.286 166.363L385.572 126.61C385.656 126.077 385.948 125.6 386.384 125.283C386.819 124.966 387.363 124.835 387.895 124.919L387.287 124.823C387.71 124.89 388.116 125.04 388.481 125.264C388.846 125.488 389.164 125.782 389.416 126.129C389.668 126.476 389.849 126.869 389.949 127.286C390.049 127.702 390.066 128.135 389.999 128.559L384.098 165.878C384.031 166.302 383.881 166.708 383.658 167.074C383.434 167.439 383.14 167.757 382.794 168.009C382.447 168.261 382.055 168.442 381.638 168.543C381.222 168.643 380.79 168.66 380.367 168.593Z" fill="#2F2E41"/>
<path d="M387.072 124.79L387.994 124.936L381.073 168.706L380.151 168.56C379.996 168.535 379.847 168.48 379.712 168.397C379.578 168.315 379.461 168.207 379.368 168.079C379.276 167.952 379.209 167.807 379.172 167.654C379.135 167.5 379.129 167.341 379.154 167.185L385.699 125.789C385.724 125.633 385.779 125.484 385.861 125.349C385.943 125.215 386.051 125.098 386.179 125.005C386.306 124.912 386.451 124.845 386.604 124.809C386.757 124.772 386.916 124.765 387.072 124.79Z" fill="#E63336"/>
<path d="M387.193 130.588L387.016 130.56C386.953 130.55 386.894 130.593 386.884 130.656L386.356 133.998C386.346 134.061 386.389 134.12 386.452 134.13L386.629 134.158C386.692 134.168 386.751 134.125 386.761 134.062L387.289 130.72C387.299 130.657 387.256 130.598 387.193 130.588Z" fill="#464353"/>
<path d="M402.824 160.946C403.774 158.55 404.74 156.072 404.675 153.495C404.511 151.159 403.804 148.894 402.61 146.88C401.158 144.179 399.345 141.688 397.222 139.475C394.693 136.843 391.041 134.491 387.594 135.686C384.856 136.635 383.296 139.488 382.283 142.206C381.68 143.532 381.442 144.996 381.593 146.446C381.928 148.317 383.372 149.753 384.417 151.34C386.057 153.827 386.759 156.799 387.433 159.702L389.122 166.983L392.024 179.488C391.947 179.159 397.412 173.977 398.061 172.874C400.151 169.32 401.303 164.782 402.824 160.946Z" fill="#FFB9B9"/>
<path d="M418.341 174.679L422.463 183.26C424.448 186.789 425.352 190.824 425.061 194.864L425.306 220.606C425.339 224.045 425.365 227.537 424.46 230.856C424.203 231.964 423.719 233.006 423.039 233.917C422.34 234.702 421.516 235.366 420.601 235.883C412.8 240.762 402.685 243.535 394.444 239.446C392.556 238.439 390.761 237.266 389.081 235.942C385.796 233.507 382.463 231.024 380.006 227.754C377.434 224.332 389.26 211.313 387.529 207.396C384.43 200.38 386.146 183.74 381.335 177.768C380.635 176.899 386.998 177.681 386.973 176.566C386.922 174.309 392.327 171.047 394.412 170.189C397.974 168.722 402.075 165.73 402.671 161.92C410.246 171.864 388.977 201.91 400.929 205.544C401.117 205.664 401.333 205.731 401.556 205.738C401.778 205.744 401.998 205.691 402.192 205.583C402.387 205.475 402.548 205.316 402.66 205.123C402.772 204.931 402.829 204.711 402.827 204.489C403.505 201.647 403.745 198.72 404.241 195.841C405.151 190.598 406.904 185.537 409.432 180.855C410.847 178.23 415.432 168.621 418.341 174.679Z" fill="#2F2E41"/>
<path opacity="0.1" d="M405.563 194.36C404.955 195.995 405.507 197.803 405.975 199.484C407.331 204.357 407.964 209.404 407.854 214.462C407.874 214.55 407.871 214.642 407.846 214.729C407.822 214.817 407.776 214.896 407.712 214.961C407.649 215.026 407.571 215.074 407.484 215.101C407.398 215.128 407.306 215.133 407.217 215.115C405.229 215.237 402.953 215.25 401.604 213.783" fill="black"/>
<path d="M86.0681 383.786H28.9419L19.0048 349.872C18.3993 347.806 18.2831 345.626 18.6655 343.507C19.0479 341.387 19.9184 339.386 21.2079 337.662C22.4974 335.938 24.1705 334.539 26.0944 333.575C28.0183 332.611 30.1401 332.109 32.2914 332.109H82.2657C84.4027 332.109 86.5107 332.604 88.4246 333.556C90.3386 334.507 92.0065 335.89 93.2979 337.594C94.5893 339.299 95.4691 341.279 95.8684 343.381C96.2676 345.483 96.1756 347.648 95.5994 349.708L86.0681 383.786Z" fill="#3F3D56"/>
<path d="M114.975 128.986C113.206 128.986 111.476 128.46 110.004 127.476C108.533 126.492 107.386 125.093 106.709 123.456C106.032 121.82 105.855 120.019 106.2 118.281C106.545 116.543 107.397 114.947 108.649 113.695C109.9 112.442 111.494 111.589 113.23 111.243C114.965 110.898 116.764 111.075 118.399 111.753C120.034 112.431 121.432 113.579 122.415 115.052C123.398 116.525 123.923 118.257 123.923 120.028C123.92 122.403 122.977 124.68 121.299 126.359C119.622 128.039 117.348 128.983 114.975 128.986ZM114.975 112.449C113.478 112.449 112.014 112.894 110.769 113.727C109.524 114.559 108.554 115.743 107.981 117.128C107.408 118.513 107.258 120.037 107.55 121.507C107.842 122.977 108.563 124.328 109.622 125.388C110.681 126.448 112.03 127.17 113.498 127.462C114.967 127.755 116.489 127.604 117.873 127.031C119.256 126.457 120.438 125.486 121.27 124.239C122.102 122.993 122.546 121.528 122.546 120.028C122.544 118.019 121.746 116.093 120.326 114.672C118.907 113.251 116.983 112.451 114.975 112.449Z" fill="#3F3D56"/>
<path d="M441.214 88.3334C439.445 88.3334 437.715 87.8081 436.243 86.8238C434.772 85.8396 433.625 84.4407 432.948 82.8039C432.271 81.1672 432.093 79.3662 432.439 77.6286C432.784 75.8911 433.636 74.2951 434.887 73.0424C436.139 71.7897 437.733 70.9366 439.469 70.5909C441.204 70.2453 443.003 70.4227 444.638 71.1007C446.273 71.7786 447.671 72.9267 448.654 74.3997C449.637 75.8727 450.162 77.6045 450.162 79.3761C450.159 81.7509 449.216 84.0277 447.538 85.707C445.861 87.3862 443.586 88.3308 441.214 88.3334ZM441.214 71.7969C439.717 71.7969 438.253 72.2414 437.008 73.0742C435.763 73.907 434.793 75.0907 434.22 76.4757C433.647 77.8606 433.497 79.3845 433.789 80.8548C434.081 82.325 434.802 83.6755 435.861 84.7355C436.92 85.7954 438.269 86.5173 439.737 86.8097C441.206 87.1022 442.728 86.9521 444.112 86.3784C445.495 85.8048 446.677 84.8333 447.509 83.5869C448.341 82.3405 448.785 80.8752 448.785 79.3761C448.783 77.3667 447.985 75.4402 446.565 74.0193C445.146 72.5984 443.222 71.7991 441.214 71.7969Z" fill="#3F3D56"/>
<path d="M294.613 23.4268H276.718V5.51221H294.613V23.4268ZM278.095 22.0488H293.237V6.89025H278.095V22.0488Z" fill="#3F3D56"/>
</g>
<defs>
<clipPath id="clip0">
<rect width="669" height="409" fill="white"/>
</clipPath>
</defs>
</svg>
