<svg width="551" height="444" viewBox="0 0 551 444" fill="none" xmlns="http://www.w3.org/2000/svg">
<path d="M278.772 444C429.119 444 551 434.476 551 422.729C551 410.981 429.119 401.457 278.772 401.457C128.425 401.457 6.54395 410.981 6.54395 422.729C6.54395 434.476 128.425 444 278.772 444Z" fill="#3F3D56"/>
<path d="M510.015 383.212L512.566 401.926L494.706 403.627L497.257 380.66L510.015 383.212Z" fill="#A0616A"/>
<path d="M425.815 126.32C425.815 126.32 427.516 149.287 427.516 150.137C427.516 150.988 415.609 209.682 415.609 209.682C415.609 209.682 398.599 242.006 415.609 241.156C432.619 240.305 427.516 210.533 427.516 210.533L445.377 161.196L437.722 126.32L425.815 126.32Z" fill="#A0616A"/>
<path d="M453.882 383.212L451.331 401.926L469.191 403.627L466.639 380.66L453.882 383.212Z" fill="#A0616A"/>
<path d="M434.32 207.981L430.068 213.935C430.068 213.935 427.516 239.455 430.068 247.961C432.619 256.467 437.722 295.597 437.722 298.149C437.722 300.7 438.573 302.402 437.722 303.252C436.872 304.103 434.32 304.103 436.021 305.804C437.722 307.506 437.722 312.609 437.722 312.609V316.863L448.779 379.81C448.779 379.81 441.975 387.465 447.078 387.465C452.181 387.465 470.892 387.465 470.041 378.959L468.34 378.108C468.34 378.108 465.789 321.966 466.639 319.414C467.49 316.863 466.639 311.759 466.639 311.759C466.639 311.759 464.938 309.207 466.639 308.356C468.34 307.506 468.34 300.7 468.34 300.7L475.995 248.812C475.995 248.812 482.799 283.688 487.051 287.09C491.303 290.493 490.453 298.999 490.453 298.999L493.855 373.855C493.855 373.855 490.453 382.362 493.855 384.063C497.257 385.764 511.715 391.719 512.566 383.212C513.416 374.706 517.669 300.7 517.669 297.298C517.669 293.895 516.818 292.194 517.669 289.642C518.519 287.09 516.818 287.09 517.669 287.09C518.519 287.09 515.968 284.538 515.968 282.837V241.156C515.968 241.156 516.818 232.649 517.669 230.948C518.519 229.247 516.818 227.546 517.669 224.994C518.519 222.442 515.968 213.935 515.968 213.935L477.696 203.728L434.32 207.981Z" fill="#2F2E41"/>
<path d="M464.088 398.524C464.088 398.524 468.34 394.271 462.387 394.271C458.565 394.348 454.8 395.217 451.33 396.822L447.078 412.134C447.078 412.134 429.643 426.169 449.204 424.468C468.765 422.767 465.789 424.043 465.789 424.043C465.789 424.043 471.742 422.342 472.593 420.64C473.443 418.939 470.892 394.271 470.892 394.271C470.892 394.271 468.34 401.076 464.088 398.524Z" fill="#2F2E41"/>
<path d="M500.659 398.524C500.659 398.524 496.406 394.271 502.36 394.271C506.182 394.349 509.947 395.217 513.416 396.822L517.669 412.134C517.669 412.134 535.104 426.169 515.543 424.468C495.981 422.767 496.406 424.043 496.406 424.043C496.406 424.043 490.453 422.342 489.602 420.64C488.752 418.939 493.855 394.271 493.855 394.271C493.855 394.271 496.406 401.076 500.659 398.524Z" fill="#2F2E41"/>
<path d="M445.377 59.1194C457.589 59.1194 467.49 49.2175 467.49 37.0028C467.49 24.7882 457.589 14.8862 445.377 14.8862C433.164 14.8862 423.264 24.7882 423.264 37.0028C423.264 49.2175 433.164 59.1194 445.377 59.1194Z" fill="#A0616A"/>
<path d="M437.722 53.1648C437.722 53.1648 441.124 70.1776 441.124 72.7295C441.124 75.2814 455.583 82.9371 455.583 82.9371L471.742 62.5218C471.742 62.5218 461.536 48.061 461.536 44.6584L437.722 53.1648Z" fill="#A0616A"/>
<path d="M450.48 75.2815C450.48 75.2815 443.067 73.3082 440.82 70.0417C440.82 70.0417 417.31 93.1449 417.31 97.3981L436.021 130.573C436.021 130.573 436.021 142.482 437.722 143.333C439.423 144.183 437.722 143.333 437.722 146.735C437.722 150.138 432.619 172.254 434.32 175.657C436.021 179.059 437.722 176.507 436.021 181.611C434.32 186.715 430.068 213.935 430.068 213.935C430.068 213.935 445.377 208.832 467.49 217.338C489.603 225.844 515.968 213.935 515.968 213.935C515.968 213.935 509.164 198.624 510.865 193.52C512.566 188.416 506.612 179.059 506.612 179.059L502.36 100.801C502.36 100.801 508.313 65.9245 504.061 64.2233L495.556 60.8207L468.32 57.4727C468.32 57.4727 461.536 74.4309 450.48 75.2815Z" fill="#D0CDE1"/>
<path d="M425.815 91.4436L417.31 97.3981C417.31 97.3981 413.058 110.158 417.31 116.112C421.563 122.067 423.264 130.573 423.264 130.573L440.274 128.872L425.815 91.4436Z" fill="#D0CDE1"/>
<path d="M428.494 13.6293L424.658 12.0934C424.658 12.0934 432.678 3.26219 443.837 4.03014L440.698 0.574399C440.698 0.574399 448.37 -2.49731 455.344 5.56597C459.01 9.80466 463.252 14.787 465.896 20.3996H470.004L468.289 24.1752L474.29 27.9509L468.131 27.2727C468.714 30.5323 468.515 33.884 467.548 37.0513L467.714 40.0356C467.714 40.0356 460.574 28.9879 460.574 27.4521V31.2917C460.574 31.2917 456.739 27.836 456.739 25.5322L454.646 28.22L453.6 23.9964L440.698 28.22L442.79 24.7643L434.77 25.9163L437.909 21.6926C437.909 21.6926 428.842 26.6842 428.494 30.9078C428.145 35.1314 423.612 40.507 423.612 40.507L421.52 36.6673C421.52 36.6673 418.381 19.3888 428.494 13.6293Z" fill="#2F2E41"/>
<path d="M433.623 185.115H95.6523V422.568H433.623V185.115Z" fill="#F2F2F2"/>
<path d="M208.963 275.714H124.103V423.877H208.963V275.714Z" fill="#3F3D56"/>
<path d="M162.658 284.602H139.799V305.915H162.658V284.602Z" fill="#F2F2F2"/>
<path d="M193.266 284.602H170.407V305.915H193.266V284.602Z" fill="#F2F2F2"/>
<path d="M162.658 313.665H139.799V335.753H162.658V313.665Z" fill="#F2F2F2"/>
<path d="M193.266 313.665H170.407V335.753H193.266V313.665Z" fill="#F2F2F2"/>
<path d="M198.172 365.167C201.152 365.167 203.567 362.751 203.567 359.77C203.567 356.79 201.152 354.374 198.172 354.374C195.192 354.374 192.776 356.79 192.776 359.77C192.776 362.751 195.192 365.167 198.172 365.167Z" fill="#E63336"/>
<path d="M405.172 261.649H237.413V402.453H405.172V261.649Z" fill="#3F3D56"/>
<path d="M468.94 229.819H60.3345L87.5782 172.849L93.6752 160.094L101.652 143.413L107.749 130.657L114.817 115.881H436.747L440.922 130.657L444.527 143.413L449.241 160.094L452.846 172.849L468.94 229.819Z" fill="#3F3D56"/>
<path d="M249.186 320.031H243.3V356.336H249.186V320.031Z" fill="#E63336"/>
<path d="M249.186 325.428H243.3V329.843H249.186V325.428Z" fill="#F2F2F2"/>
<path d="M249.186 346.524H243.3V350.939H249.186V346.524Z" fill="#F2F2F2"/>
<path d="M266.354 320.031H252.129V356.336H266.354V320.031Z" fill="#E63336"/>
<path d="M266.354 325.428H252.129V329.843H266.354V325.428Z" fill="#F2F2F2"/>
<path d="M266.354 346.524H252.129V350.939H266.354V346.524Z" fill="#F2F2F2"/>
<path d="M275.674 320.031H269.788V356.336H275.674V320.031Z" fill="#E63336"/>
<path d="M275.674 325.428H269.788V329.843H275.674V325.428Z" fill="#F2F2F2"/>
<path d="M275.674 346.524H269.788V350.939H275.674V346.524Z" fill="#F2F2F2"/>
<path d="M284.504 320.031H278.617V356.336H284.504V320.031Z" fill="#E63336"/>
<path d="M284.504 325.428H278.617V329.843H284.504V325.428Z" fill="#F2F2F2"/>
<path d="M284.504 346.524H278.617V350.939H284.504V346.524Z" fill="#F2F2F2"/>
<path d="M290.176 320.159L284.668 322.236L297.471 356.207L302.979 354.131L290.176 320.159Z" fill="#E63336"/>
<path d="M292.079 325.209L286.571 327.286L288.128 331.418L293.636 329.341L292.079 325.209Z" fill="#F2F2F2"/>
<path d="M299.519 344.95L294.011 347.026L295.568 351.158L301.076 349.081L299.519 344.95Z" fill="#F2F2F2"/>
<path d="M399.776 320.031H385.551V356.336H399.776V320.031Z" fill="#E63336"/>
<path d="M399.776 325.428H385.551V329.843H399.776V325.428Z" fill="#F2F2F2"/>
<path d="M399.776 346.524H385.551V350.939H399.776V346.524Z" fill="#F2F2F2"/>
<path d="M382.118 320.031H376.231V356.336H382.118V320.031Z" fill="#E63336"/>
<path d="M382.118 325.428H376.231V329.843H382.118V325.428Z" fill="#F2F2F2"/>
<path d="M382.118 346.524H376.231V350.939H382.118V346.524Z" fill="#F2F2F2"/>
<path d="M373.288 320.031H367.402V356.336H373.288V320.031Z" fill="#E63336"/>
<path d="M373.288 325.428H367.402V329.843H373.288V325.428Z" fill="#F2F2F2"/>
<path d="M373.288 346.524H367.402V350.939H373.288V346.524Z" fill="#F2F2F2"/>
<path d="M361.73 320.159L348.926 354.131L354.434 356.207L367.238 322.236L361.73 320.159Z" fill="#E63336"/>
<path d="M359.827 325.209L358.269 329.341L363.777 331.417L365.335 327.286L359.827 325.209Z" fill="#F2F2F2"/>
<path d="M352.387 344.949L350.83 349.081L356.337 351.158L357.895 347.026L352.387 344.949Z" fill="#F2F2F2"/>
<path d="M405.172 356.336H237.413V359.77H405.172V356.336Z" fill="#F2F2F2"/>
<path d="M341.404 320.031H310.501V356.336H341.404V320.031Z" fill="#E63336"/>
<path d="M333.801 327.881H318.104V334.749H333.801V327.881Z" fill="#F2F2F2"/>
<path d="M322.764 261.649H319.821V293.048H322.764V261.649Z" fill="#F2F2F2"/>
<path d="M321.293 297.954C324.002 297.954 326.198 295.757 326.198 293.048C326.198 290.338 324.002 288.142 321.293 288.142C318.584 288.142 316.388 290.338 316.388 293.048C316.388 295.757 318.584 297.954 321.293 297.954Z" fill="#F2F2F2"/>
<path d="M444.527 143.413H101.652L107.749 130.657H440.922L444.527 143.413Z" fill="#E63336"/>
<path d="M452.846 172.849H87.5782L93.6752 160.094H449.241L452.846 172.849Z" fill="#E63336"/>
<path d="M488.752 99.0991C488.752 99.0991 483.827 111.766 484.856 124.298C485.044 126.542 485.799 128.701 487.051 130.573L426.713 159.223C426.713 159.223 399.45 162.046 406.254 173.955C413.058 185.864 437.722 168.001 437.722 168.001C437.722 168.001 502.36 158.644 507.463 149.287C512.566 139.93 515.968 100.8 515.968 100.8L488.752 99.0991Z" fill="#A0616A"/>
<path d="M491.303 64.2231H504.061C504.061 64.2231 513.416 65.9244 515.968 82.9372C518.519 99.9499 521.071 104.203 518.519 104.203C515.968 104.203 485.35 103.352 485.35 102.502C485.35 101.651 491.303 64.2231 491.303 64.2231Z" fill="#D0CDE1"/>
<path d="M65.4394 318.335C101.581 318.335 130.879 289.032 130.879 252.885C130.879 216.737 101.581 187.434 65.4394 187.434C29.2982 187.434 0 216.737 0 252.885C0 289.032 29.2982 318.335 65.4394 318.335Z" fill="#E63336"/>
<path opacity="0.1" d="M65.4394 309.172C96.5209 309.172 121.717 283.971 121.717 252.885C121.717 221.798 96.5209 196.597 65.4394 196.597C34.358 196.597 9.16153 221.798 9.16153 252.885C9.16153 283.971 34.358 309.172 65.4394 309.172Z" fill="black"/>
<path d="M62.7427 286.1V277.907C58.6021 277.826 54.3187 276.366 51.8202 274.338L53.5334 268.903C56.5025 271.129 60.1033 272.351 63.8135 272.391C68.8823 272.391 72.309 269.065 72.309 264.442C72.309 259.981 69.5247 257.223 64.2419 254.789C56.9601 251.545 52.4626 247.814 52.4626 240.757C52.4626 234.024 56.6746 228.914 63.2426 227.698V219.505H67.6686V227.373C70.9691 227.418 74.1884 228.403 76.9494 230.212L75.1645 235.566C72.5164 233.753 69.3785 232.791 66.1694 232.808C60.6726 232.808 58.6022 236.539 58.6022 239.784C58.6022 244.001 61.2436 246.11 67.4546 249.031C74.8075 252.437 78.5201 256.655 78.5201 263.874C78.5201 270.282 74.5935 276.285 67.2402 277.663V286.1H62.7427Z" fill="#F2F2F2"/>
</svg>
