<svg width="371" height="371" viewBox="0 0 371 371" fill="none" xmlns="http://www.w3.org/2000/svg">
<g id="dashboard 1">
<path id="Vector" d="M185.5 62.6062C222.6 62.6062 256.608 78.0643 281.342 102.025L316.896 66.4706C283.661 33.2356 237.286 12.3669 185.5 12.3669C134.487 12.3669 88.1125 33.2356 54.1044 66.4713L89.6588 102.026C114.392 77.2919 148.4 62.6062 185.5 62.6062Z" fill="#F8B64C"/>
<path id="Vector_2" d="M89.6581 102.025L54.1044 66.4706C20.8687 100.479 0 146.854 0 197.867C0 248.879 20.8687 295.254 54.1044 329.262L89.6588 293.708C64.9257 268.975 50.2401 234.966 50.2401 197.866C50.2393 160.767 64.925 126.758 89.6581 102.025Z" fill="#54C0EB"/>
<path id="Vector_3" d="M316.896 66.4706L281.342 102.025C306.075 126.758 320.761 160.767 320.761 197.867C320.761 234.967 305.303 268.975 281.342 293.709L316.896 329.263C350.131 296.027 371 249.652 371 197.867C371 146.854 350.131 100.479 316.896 66.4706Z" fill="#F1543F"/>
<path id="Vector_4" d="M281.342 102.025L247.334 136.033C231.103 120.575 209.461 110.527 185.501 110.527C161.541 110.527 139.126 120.575 123.668 136.033L89.6581 102.025C114.392 77.2919 148.4 62.6063 185.5 62.6063C222.6 62.6063 256.608 77.2919 281.342 102.025Z" fill="#FFD15C"/>
<path id="Vector_5" d="M123.667 259.7L89.6588 293.708C64.9257 268.975 50.2401 234.966 50.2401 197.866C50.2401 160.766 65.6982 126.758 89.6588 102.024L123.667 136.032C108.209 151.49 98.1607 173.906 98.1607 197.865C97.3875 221.827 107.436 244.242 123.667 259.7Z" fill="#84DBFF"/>
<path id="Vector_6" d="M320.761 197.867C320.761 234.967 305.303 268.975 281.342 293.709L247.333 259.7C262.791 243.469 272.839 221.827 272.839 197.867C272.839 173.907 262.791 151.492 247.333 136.034L281.341 102.026C306.075 126.758 320.761 160.767 320.761 197.867Z" fill="#FF7058"/>
<path id="Vector_7" d="M87 109.235L184.65 189.334C194.031 188.696 201.832 194.789 203.973 203.814C206.471 214.342 200.162 224.578 189.633 227.076C179.104 229.574 168.869 223.265 166.371 212.736C165.835 210.48 165.479 208.976 165.695 206.542L87 109.235Z" fill="#40596B"/>
<path id="Vector_8" d="M251.971 358.633H119.029C102.798 358.633 89.6588 345.494 89.6588 329.262C89.6588 313.031 102.798 299.892 119.029 299.892H251.198C267.429 299.892 280.569 313.031 280.569 329.262C281.342 345.494 268.202 358.633 251.971 358.633Z" fill="#CDD6E0"/>
<path id="Vector_9" d="M193.447 206.311C192.462 202.158 188.296 199.589 184.142 200.575C179.989 201.561 177.421 205.727 178.406 209.88C179.392 214.034 183.558 216.602 187.711 215.616C191.865 214.631 194.433 210.465 193.447 206.311Z" fill="white"/>
</g>
</svg>
