<svg width="560" height="397" viewBox="0 0 560 397" fill="none" xmlns="http://www.w3.org/2000/svg">
<path d="M546.933 314.864H397.965V315.909H546.933V314.864Z" fill="#3F3D56"/>
<path d="M560 335.249H437.69V336.294H560V335.249Z" fill="#3F3D56"/>
<path d="M468.524 128.942H467.479V315.884H468.524V128.942Z" fill="#3F3D56"/>
<path d="M468.203 299.863C479.461 299.863 488.588 279.036 488.588 253.344C488.588 227.651 479.461 206.824 468.203 206.824C456.945 206.824 447.818 227.651 447.818 253.344C447.818 279.036 456.945 299.863 468.203 299.863Z" fill="#3F3D56"/>
<path d="M468.203 193.756C479.461 193.756 488.588 172.929 488.588 147.236C488.588 121.544 479.461 100.717 468.203 100.717C456.945 100.717 447.818 121.544 447.818 147.236C447.818 172.929 456.945 193.756 468.203 193.756Z" fill="#3F3D56"/>
<path d="M468.704 109.23L467.702 108.93C467.766 108.718 473.911 87.6578 463.82 74.0999C458.12 66.4427 448.34 62.56 434.751 62.56V61.5146C448.691 61.5146 458.754 65.5403 464.662 73.4797C475.065 87.4626 468.769 109.014 468.704 109.23Z" fill="#3F3D56"/>
<path d="M434.751 75.1047C441.967 75.1047 447.818 69.2542 447.818 62.0373C447.818 54.8204 441.967 48.97 434.751 48.97C427.534 48.97 421.683 54.8204 421.683 62.0373C421.683 69.2542 427.534 75.1047 434.751 75.1047Z" fill="#EC3A3C"/>
<path d="M421.755 301.332H408.165V287.742H421.755V301.332ZM409.21 300.286H420.71V288.787H409.21V300.286Z" fill="#3F3D56"/>
<path d="M95.2986 275.202C95.3157 310.35 74.4266 322.631 48.6536 322.643C48.0549 322.644 47.4592 322.637 46.8663 322.624C45.6718 322.599 44.4898 322.545 43.3201 322.463C20.0584 320.827 1.97839 307.935 1.96253 275.248C1.9461 241.42 45.1591 198.71 48.4 195.552C48.4028 195.552 48.4028 195.552 48.4057 195.549C48.5288 195.428 48.5918 195.368 48.5918 195.368C48.5918 195.368 95.2815 240.057 95.2986 275.202Z" fill="#EC3A3C"/>
<path d="M46.9524 317.268L64.0092 293.412L46.9107 319.886L46.8662 322.624C45.6718 322.599 44.4897 322.545 43.3201 322.463L45.142 287.3L45.1275 287.028L45.159 286.976L45.3321 283.653L28.1649 257.13L45.3824 281.164L45.4257 281.869L46.802 255.302L32.1034 227.892L46.9802 250.633L48.3999 195.552L48.4055 195.368L48.4056 195.549L48.1862 238.986L62.7943 221.759L48.1249 242.727L47.7498 266.515L61.3928 243.68L47.6971 270.012L47.4887 283.24L67.2885 251.454L47.4136 287.854L46.9524 317.268Z" fill="#3F3D56"/>
<path d="M90.3464 322.113H2.01111V323.158H90.3464V322.113Z" fill="#3F3D56"/>
<path d="M348.383 8.88586H107.944V9.93125H348.383V8.88586Z" fill="#3F3D56"/>
<path d="M179.767 19.8624C185.252 19.8624 189.699 15.416 189.699 9.93119C189.699 4.44635 185.252 0 179.767 0C174.283 0 169.836 4.44635 169.836 9.93119C169.836 15.416 174.283 19.8624 179.767 19.8624Z" fill="#EC3A3C"/>
<path d="M7.99995 202.546C6.7594 202.546 5.54671 202.178 4.51524 201.489C3.48376 200.8 2.67982 199.82 2.20508 198.674C1.73035 197.528 1.60614 196.267 1.84816 195.05C2.09018 193.834 2.68756 192.716 3.56476 191.839C4.44197 190.962 5.55959 190.364 6.7763 190.122C7.99301 189.88 9.25417 190.004 10.4003 190.479C11.5464 190.954 12.526 191.758 13.2152 192.789C13.9044 193.821 14.2723 195.033 14.2723 196.274C14.2704 197.937 13.609 199.531 12.4331 200.707C11.2572 201.883 9.66291 202.545 7.99995 202.546ZM7.99995 191.047C6.96616 191.047 5.95559 191.354 5.09602 191.928C4.23645 192.502 3.5665 193.319 3.17089 194.274C2.77528 195.229 2.67176 196.28 2.87345 197.294C3.07513 198.308 3.57295 199.239 4.30395 199.97C5.03495 200.701 5.9663 201.199 6.98023 201.401C7.99416 201.602 9.04512 201.499 10.0002 201.103C10.9553 200.707 11.7717 200.038 12.346 199.178C12.9203 198.318 13.2269 197.308 13.2269 196.274C13.2253 194.888 12.6741 193.56 11.6942 192.58C10.7143 191.6 9.38574 191.049 7.99995 191.047Z" fill="#3F3D56"/>
<path d="M97.1105 178.996H83.5205V165.406H97.1105V178.996ZM84.5659 177.95H96.0651V166.451H84.5659V177.95Z" fill="#3F3D56"/>
<path d="M232.81 365.245C361.387 365.245 465.62 362.824 465.62 359.837C465.62 356.851 361.387 354.43 232.81 354.43C104.232 354.43 0 356.851 0 359.837C0 362.824 104.232 365.245 232.81 365.245Z" fill="#3F3D56"/>
<path d="M232.81 381.467C321.825 381.467 393.986 379.791 393.986 377.724C393.986 375.656 321.825 373.98 232.81 373.98C143.795 373.98 71.6338 375.656 71.6338 377.724C71.6338 379.791 143.795 381.467 232.81 381.467Z" fill="#3F3D56"/>
<path d="M232.883 397C305.497 397 364.362 395.633 364.362 393.946C364.362 392.26 305.497 390.892 232.883 390.892C160.27 390.892 101.405 392.26 101.405 393.946C101.405 395.633 160.27 397 232.883 397Z" fill="#3F3D56"/>
<path d="M347.41 261.19L346.645 277.262L383.381 289.508C383.381 289.508 381.467 269.226 382.615 267.313L347.41 261.19Z" fill="#FFB8B8"/>
<path d="M287.714 332.749L284.27 346.142H300.342V332.749H287.714Z" fill="#FFB8B8"/>
<path d="M371.136 336.31L378.406 338.872L382.232 329.264L375.727 324.139L371.136 336.31Z" fill="#A0616A"/>
<path d="M384.019 319.632C384.019 319.632 394.861 318.208 394.861 327.392C394.861 336.576 396.391 359.153 381.085 356.475C381.085 356.475 374.197 357.24 376.875 349.204C376.875 349.204 379.602 345.935 378.621 343.934C377.641 341.933 371.901 340.403 372.666 339.255C373.431 338.107 381.85 328.923 381.85 328.923L384.019 319.632Z" fill="#2F2E41"/>
<path d="M384.146 287.594L346.645 274.584L344.349 283.768C344.349 283.768 288.097 251.241 284.653 273.436C284.653 273.436 281.591 291.421 286.183 315.146L286.566 334.28C286.566 334.28 296.133 336.576 300.725 334.663L301.107 313.998C301.107 313.998 304.934 300.605 303.021 290.273C303.021 290.273 331.721 312.85 344.731 315.529C344.731 315.529 299.194 350.735 304.551 361.832C309.909 372.929 316.414 374.843 324.833 372.929C330.634 371.611 356.607 350.666 372.196 337.771C377.538 333.393 381.781 327.824 384.583 321.511C387.385 315.198 388.668 308.316 388.33 301.417C388.051 296.341 386.879 291.421 384.146 287.594Z" fill="#2F2E41"/>
<path d="M286.949 341.168C286.949 341.168 286.566 336.576 284.27 338.489C281.974 340.403 273.938 347.673 273.938 347.673C273.938 347.673 244.855 350.866 262.458 358.136C270.497 359.345 278.714 358.285 286.183 355.075C286.183 355.075 305.742 360.096 305.338 355.224C304.934 350.352 300.342 342.215 300.342 342.215C300.342 342.215 294.985 346.143 288.862 340.785L286.949 341.168Z" fill="#2F2E41"/>
<path d="M362.717 217.184C370.536 217.184 376.875 210.845 376.875 203.025C376.875 195.205 370.536 188.866 362.717 188.866C354.897 188.866 348.558 195.205 348.558 203.025C348.558 210.845 354.897 217.184 362.717 217.184Z" fill="#FFB8B8"/>
<path d="M374.197 203.79C374.197 203.79 376.493 215.27 380.702 217.949L357.359 245.501L348.558 237.082L355.063 225.602C355.063 225.602 362.334 221.393 360.038 215.653L374.197 203.79Z" fill="#FFB8B8"/>
<path d="M382.615 219.097C382.615 219.097 399.453 222.541 401.366 233.638C403.279 244.736 399.453 265.017 399.453 265.017L391.417 324.713C391.417 324.713 391.034 349.969 381.085 345.76C371.135 341.55 383.763 322.417 383.763 322.417L387.207 284.916C387.207 284.916 388.738 253.154 385.677 249.328L373.431 245.501C373.431 245.501 376.11 220.245 382.615 219.097Z" fill="#FFB8B8"/>
<path d="M355.063 225.602C355.063 225.602 343.583 225.22 336.313 234.404C329.042 243.588 311.439 250.476 311.439 250.476L267.433 267.696C267.433 267.696 259.397 253.537 254.422 258.512C249.447 263.486 263.606 276.114 270.111 274.584C276.617 273.053 316.031 261.19 316.031 261.19L347.41 247.032L355.063 225.602Z" fill="#FFB8B8"/>
<path d="M380.109 217.037C380.109 217.037 365.395 236.7 358.89 236.317C352.385 235.934 356.766 224.308 356.766 224.308L352.174 225.456C352.174 225.456 345.879 237.465 345.114 238.23C345.114 238.23 335.93 253.154 346.262 256.598L346.645 264.634C346.645 264.634 372.283 263.486 383.381 269.226L385.677 249.328C385.677 249.328 371.135 242.057 379.171 227.898C379.171 227.898 382.022 220.481 385.084 219.716L380.109 217.037Z" fill="#3F3D56"/>
<path opacity="0.1" d="M383.955 322.226L325.407 365.085C325.407 365.085 384.337 330.262 383.955 322.226Z" fill="black"/>
<path d="M377.449 204.364C378.06 204.364 378.555 203.251 378.555 201.877C378.555 200.503 378.06 199.39 377.449 199.39C376.839 199.39 376.344 200.503 376.344 201.877C376.344 203.251 376.839 204.364 377.449 204.364Z" fill="#FFB8B8"/>
<path d="M347.106 195.506C347.106 195.506 343.138 168.703 371.477 176.973C371.477 176.973 391.525 172.895 398.606 197.935L405.794 224.187L402.504 222.477L401.05 225.824L395.799 227.262L393.455 222.824L392.468 228.287L349.337 233.424C349.337 233.424 368.471 221.607 368.384 201.086L364.773 205.053L347.106 195.506Z" fill="#2F2E41"/>
<path d="M250.012 85.4019L249.903 146.494L249.794 207.587L244.776 193.404V193.368L238.266 329.371C244.666 347.408 248.085 357.045 248.121 357.081C248.157 357.117 251.794 357.336 256.194 357.554C269.503 358.208 286.013 359.626 298.559 361.19C301.468 361.554 303.941 361.736 304.122 361.59C304.304 361.445 304.341 299.261 304.304 223.369L304.195 85.4019H250.012V85.4019Z" fill="#B1060F"/>
<path d="M152.01 85.2201V223.332C152.01 299.298 152.083 361.518 152.192 361.627C152.301 361.736 156.992 361.263 162.665 360.645C168.337 360.027 176.156 359.227 180.047 358.899C186.011 358.39 203.902 357.263 205.938 357.227C206.556 357.227 206.593 354.136 206.666 298.716L206.775 240.206L211.102 252.424C211.757 254.315 211.975 254.897 212.629 256.751L219.139 120.785C217.757 116.894 218.484 118.93 216.92 114.494C211.611 99.475 207.102 86.7838 206.92 86.2019L206.556 85.1837H152.01L152.01 85.2201Z" fill="#B1060F"/>
<path d="M152.01 85.2201L206.738 240.315V240.242L211.066 252.46C235.103 320.498 248.012 357.008 248.085 357.081C248.121 357.117 251.758 357.336 256.158 357.554C269.467 358.208 285.976 359.627 298.522 361.19C301.395 361.554 303.904 361.736 304.05 361.59L249.794 207.55V207.587L244.776 193.404C239.866 179.55 236.594 170.277 216.848 114.494C211.538 99.475 207.029 86.7838 206.847 86.2019L206.484 85.1837H179.247L152.01 85.2201V85.2201Z" fill="#E50914"/>
</svg>
